<svg class="animated" id="freepik_stories-people-celebrating-canada-day" xmlns="http://www.w3.org/2000/svg" viewBox="0 0 500 500" version="1.1" xmlns:xlink="http://www.w3.org/1999/xlink" xmlns:svgjs="http://svgjs.com/svgjs"><style>svg#freepik_stories-people-celebrating-canada-day:not(.animated) .animable {opacity: 0;}svg#freepik_stories-people-celebrating-canada-day.animated #freepik--background-complete--inject-95 {animation: 1.5s Infinite  linear floating;animation-delay: 0s;}            @keyframes floating {                0% {                    opacity: 1;                    transform: translateY(0px);                }                50% {                    transform: translateY(-10px);                }                100% {                    opacity: 1;                    transform: translateY(0px);                }            }        .animator-hidden { display: none; }</style><g id="freepik--background-complete--inject-95" class="animable" style="transform-origin: 250px 225.84px;"><polygon points="428.67 122.65 429.58 129.63 415.18 124.74 414.35 129.58 411.95 129.26 412.39 124.38 397.21 125.39 399.89 118.88 385.24 104.89 389.33 103.59 387.83 92.53 397.09 95.09 399.45 90.39 407.21 100.46 407.67 82.44 412.07 85.71 420.21 75.48 425.45 87.46 430.54 85.44 426.34 102.97 436.43 95.23 437.51 100.39 447.11 100.29 442.81 110.6 446.44 112.9 428.67 122.65" style="fill: rgb(235, 235, 235); transform-origin: 416.175px 102.555px;" id="el6549jf06gbv" class="animable"></polygon><polygon points="120.34 137.85 126.16 145.23 106.28 149.47 108.64 155.59 105.67 156.87 102.84 150.95 86.11 162.48 84.74 153.18 58.35 147.14 62.17 142.85 52.89 131.18 65.26 127.8 64.77 120.78 80.55 127.05 68.77 106.05 76.05 106.79 78.41 89.49 92.6 99.66 97.06 93.86 104.22 116.85 110.52 101.08 115.28 106.25 126.23 99.59 128.34 114.36 134.07 114.52 120.34 137.85" style="fill: rgb(235, 235, 235); transform-origin: 93.48px 125.985px;" id="elety6v83v3oj" class="animable"></polygon><polygon points="255.24 358.31 259.61 369.6 233.55 367.32 234.15 375.74 230 376.2 228.75 367.85 203.81 375.74 205.63 363.77 175.43 346.38 181.75 342.55 174.71 324.68 191.22 325.18 193.26 316.36 210.33 330.02 203.74 299.73 212.42 303.38 221.84 282.98 235.48 300.85 243.16 295.39 243.31 326.39 257 309.34 260.91 317.51 276.91 313.44 273.94 332.41 280.94 334.78 255.24 358.31" style="fill: rgb(235, 235, 235); transform-origin: 227.825px 329.59px;" id="elvj158h6y5ei" class="animable"></polygon><polygon points="166.7 260.22 182.63 269.45 149.54 291.54 158.26 300.96 153.78 305.44 144.35 296.73 122.26 329.82 113.03 313.89 60.65 321.99 64.5 311.43 39.16 296.92 59.22 281.81 53.24 269.4 86.5 269.37 49.86 239.69 63.64 235.77 55.41 202.6 88.59 210.83 92.5 197.05 122.18 233.69 122.21 200.43 134.62 206.41 149.73 186.35 164.25 211.69 174.8 207.84 166.7 260.22" style="fill: rgb(219, 219, 219); transform-origin: 110.895px 258.085px;" id="elynydo5qs0s9" class="animable"></polygon><polygon points="156.02 303.2 55.41 202.6 88.59 210.83 92.5 197.05 122.18 233.69 122.21 200.43 134.62 206.41 149.73 186.35 164.25 211.69 174.8 207.84 166.7 260.22 182.63 269.45 149.54 291.54 158.26 300.96 156.02 303.2" style="fill: rgb(235, 235, 235); transform-origin: 119.02px 244.775px;" id="ellwb1lmcnzca" class="animable"></polygon><polygon points="333.3 260.22 317.37 269.45 350.46 291.54 341.74 300.96 346.22 305.44 355.65 296.73 377.74 329.82 386.96 313.89 439.35 321.99 435.5 311.43 460.84 296.92 440.78 281.81 446.76 269.4 413.5 269.37 450.14 239.69 436.36 235.77 444.59 202.6 411.41 210.83 407.5 197.05 377.82 233.69 377.79 200.43 365.38 206.41 350.27 186.35 335.75 211.69 325.2 207.84 333.3 260.22" style="fill: rgb(219, 219, 219); transform-origin: 389.105px 258.085px;" id="el7z01s970dwb" class="animable"></polygon><polygon points="343.98 303.2 444.59 202.6 411.41 210.83 407.5 197.05 377.82 233.69 377.79 200.43 365.38 206.41 350.27 186.35 335.75 211.69 325.2 207.84 333.3 260.22 317.37 269.45 350.46 291.54 341.74 300.96 343.98 303.2" style="fill: rgb(235, 235, 235); transform-origin: 380.98px 244.775px;" id="elst1lrjb2xk" class="animable"></polygon></g><g id="freepik--Shadow--inject-95" class="animable" style="transform-origin: 250px 464.72px;"><ellipse cx="250" cy="464.72" rx="129.5" ry="12.69" style="fill: rgb(235, 235, 235); transform-origin: 250px 464.72px;" id="elm36bm2pc1ee" class="animable"></ellipse></g><g id="freepik--Floor--inject-95" class="animable" style="transform-origin: 250px 402.8px;"><polygon points="36.42 402.8 89.82 402.56 143.21 402.47 250 402.3 356.79 402.47 410.18 402.55 463.58 402.8 410.18 403.04 356.79 403.13 250 403.3 143.21 403.13 89.82 403.04 36.42 402.8" style="fill: rgb(38, 50, 56); transform-origin: 250px 402.8px;" id="el6issih5sgyt" class="animable"></polygon></g><g id="freepik--Balloons--inject-95" class="animable" style="transform-origin: 249.998px 269.128px;"><path d="M153,276a79,79,0,0,1-15.66-16.7c-4.51-6.62-7.49-14-9.88-21.6-3-9.64-5.67-19.41-8.52-29.11,0-.15.2-.2.25-.05,2.54,8.34,5.07,16.69,7.69,25,2.43,7.75,5.08,15.48,9.33,22.44,8.42,13.79,21.68,23.87,35.69,31.48,8.72,4.74,17.88,8.66,27,12.53a.08.08,0,0,1,0,.16C182.79,293.89,166.5,287,153,276Z" style="fill: rgb(38, 50, 56); transform-origin: 158.96px 254.3px;" id="eljc94kv7o1g" class="animable"></path><path d="M121.72,206.61s4,6.89,3.71,7.39-9.85,2.69-10.14,2.33-.3-8.17-.3-8.17Z" style="fill: rgb(255, 255, 255); transform-origin: 120.218px 211.49px;" id="el61n68v33wig" class="animable"></path><path d="M121.72,206.61c1.14,1.93,2.29,3.86,3.28,5.89.12.25.24.51.34.77s.1.27.14.41a.78.78,0,0,1,0,.22.25.25,0,0,1-.14.24,10,10,0,0,1-1.61.57c-1.08.31-2.17.59-3.26.85s-2.2.5-3.3.71a15.61,15.61,0,0,1-1.69.22.48.48,0,0,1-.28-.06.51.51,0,0,1-.12-.26c0-.14,0-.28-.05-.43l-.06-.84c-.09-2.25-.09-4.5-.09-6.74v-.06l.06,0C117.24,207.57,119.49,207.09,121.72,206.61Zm0,0c-2.26.55-4.49,1.11-6.71,1.62l.06-.07c0,2.24.05,4.49.16,6.73l.06.83c0,.14,0,.27.06.41l0,.12h.14a11.76,11.76,0,0,0,1.64-.23c1.11-.19,2.2-.43,3.3-.67s2.18-.52,3.26-.82a10,10,0,0,0,1.57-.53c.07,0,.07,0,.07-.09a1.25,1.25,0,0,0,0-.19c0-.13-.09-.26-.14-.39s-.21-.51-.33-.77C123.89,210.54,122.81,208.57,121.72,206.61Z" style="fill: rgb(38, 50, 56); transform-origin: 120.184px 211.551px;" id="elhysnm1t4xq" class="animable"></path><path d="M104.93,148.13c16.16-3.72,32.24,6.21,35.88,26.13s-12.94,32.62-21.06,34.49c-5.87,1.36-30.31,1.91-36-22.92C78.83,164.61,88.83,151.84,104.93,148.13Z" style="fill: rgb(255, 255, 255); transform-origin: 111.908px 178.316px;" id="elgnlhviy07au" class="animable"></path><path d="M104.93,148.13a29.29,29.29,0,0,1,11.83-.31,27.64,27.64,0,0,1,10.92,4.56,29.83,29.83,0,0,1,8.14,8.61,37.37,37.37,0,0,1,4.53,11,29.46,29.46,0,0,1-3.26,23,34.31,34.31,0,0,1-7.87,8.9c-.78.61-1.59,1.2-2.41,1.75a28,28,0,0,1-2.58,1.51,17.65,17.65,0,0,1-5.63,2,35.7,35.7,0,0,1-11.89-.45,31.22,31.22,0,0,1-11-4.44,26.69,26.69,0,0,1-8.19-8.56A33.5,33.5,0,0,1,85,190.26a37.11,37.11,0,0,1-1.55-5.76,40,40,0,0,1-.82-11.85,27.75,27.75,0,0,1,3.35-11.34A25.11,25.11,0,0,1,94,152.69,33.22,33.22,0,0,1,104.93,148.13Zm0,0A33.1,33.1,0,0,0,94,152.72a25.11,25.11,0,0,0-8,8.62,27.76,27.76,0,0,0-3.31,11.32,40.14,40.14,0,0,0,.85,11.82,37.92,37.92,0,0,0,1.56,5.73,34.11,34.11,0,0,0,2.56,5.35,26.58,26.58,0,0,0,8.16,8.49,31,31,0,0,0,11,4.37,35.78,35.78,0,0,0,11.81.43,17.29,17.29,0,0,0,5.56-1.94c.89-.42,1.71-1,2.56-1.48s1.62-1.14,2.41-1.74a34.07,34.07,0,0,0,7.84-8.83A29.22,29.22,0,0,0,140.22,172a37,37,0,0,0-4.48-11,29.56,29.56,0,0,0-8.1-8.61,27.59,27.59,0,0,0-10.88-4.58A29.28,29.28,0,0,0,104.93,148.13Z" style="fill: rgb(38, 50, 56); transform-origin: 111.938px 178.402px;" id="elj4sn4szzuyl" class="animable"></path><polygon points="123.32 182.28 124.97 185.29 118.24 185.61 118.79 187.96 117.76 188.24 117.04 185.93 111.08 189.07 110.97 185.63 102.47 181.85 103.89 180.54 101.25 175.76 105.47 175.3 105.57 172.74 110.56 175.96 107.44 167.67 109.83 168.38 111.25 162.29 115.57 166.82 117.26 165 118.77 173.72 121.44 168.42 122.82 170.58 126.7 168.84 126.84 174.29 128.74 174.7 123.32 182.28" style="fill: rgb(187, 11, 11); transform-origin: 114.995px 175.68px;" id="elv4w7vdcitgh" class="animable"></polygon><g id="elh77qk6zm0l"><path d="M125.85,164.59a11,11,0,1,1-9.24-12.48A11,11,0,0,1,125.85,164.59Z" style="fill: rgb(255, 255, 255); opacity: 0.4; transform-origin: 114.967px 162.987px;" class="animable"></path></g><path d="M351.48,260.23A79.7,79.7,0,0,0,364,241c3.27-7.3,4.9-15.09,5.92-23,1.29-10,2.16-20.1,3.26-30.15,0-.16-.23-.16-.25,0-1,8.65-2.06,17.31-3.17,26-1,8-2.28,16.13-5.23,23.73-5.86,15.06-17.14,27.31-29.6,37.28-7.74,6.2-16.07,11.66-24.38,17.08-.09.06,0,.2.08.15C325.29,283.05,340.11,273.41,351.48,260.23Z" style="fill: rgb(38, 50, 56); transform-origin: 341.846px 239.915px;" id="elibo739mrjvr" class="animable"></path><path d="M371.54,185.47s-4.38,6.67-4.09,7.18,9.68,3.21,10,2.87.73-8.14.73-8.14Z" style="fill: rgb(187, 11, 11); transform-origin: 372.808px 190.51px;" id="elefehqz5ytm" class="animable"></path><path d="M391.42,128c-15.93-4.57-32.52,4.48-37.21,24.18s11.17,33.27,19.19,35.57c5.79,1.66,30.16,3.52,37.2-21C416.61,145.82,407.31,132.54,391.42,128Z" style="fill: rgb(187, 11, 11); transform-origin: 382.9px 157.727px;" id="el4xko4d63d88" class="animable"></path><g id="elj3f6z50umrk"><circle cx="395.2" cy="145.79" r="10.98" style="fill: rgb(255, 255, 255); opacity: 0.4; transform-origin: 395.2px 145.79px; transform: rotate(-44.39deg);" class="animable"></circle></g><path d="M165.74,405.14c-12.56-4.72-21.83-13.92-30.14-24.15a121,121,0,0,1-13-19.12c-.08-.15.16-.27.24-.12a113.7,113.7,0,0,0,11.82,16.89,134,134,0,0,0,13.57,14.71c9.79,8.81,21.94,13.35,34.79,15.49,7.23,1.2,14.54,1.73,21.84,2.28a.15.15,0,0,1,0,.3C191.72,410.69,178.15,409.81,165.74,405.14Z" style="fill: rgb(38, 50, 56); transform-origin: 163.797px 386.551px;" id="el2jhcnxcwxow" class="animable"></path><path d="M125.78,361.63s6.56,4.54,6.49,5.12-7.77,6.61-8.18,6.41-3.74-7.27-3.74-7.27Z" style="fill: rgb(255, 255, 255); transform-origin: 126.31px 367.397px;" id="el5xu0ilpwtti" class="animable"></path><path d="M125.78,361.63c1.85,1.27,3.71,2.53,5.46,3.94.22.18.44.36.65.56s.2.19.3.3.09.12.13.19a.26.26,0,0,1,0,.28,11.3,11.3,0,0,1-1.21,1.19c-.85.75-1.72,1.46-2.6,2.16s-1.77,1.38-2.69,2a13,13,0,0,1-1.43.92.65.65,0,0,1-.28.07.49.49,0,0,1-.21-.19,3.61,3.61,0,0,1-.23-.36l-.41-.75c-1-2-2-4-3-6.06l0-.05,0,0C122.13,364.4,124,363,125.78,361.63Zm0,0c-1.81,1.46-3.59,2.91-5.39,4.32l0-.09c1,2,2,4,3,6l.41.73c.07.12.15.23.22.34l.08.1.13-.06a12.6,12.6,0,0,0,1.39-.9q1.36-1,2.7-2c.88-.69,1.76-1.39,2.61-2.12a10.84,10.84,0,0,0,1.19-1.15c0-.07,0-.07,0-.12a.72.72,0,0,0-.11-.15,3.84,3.84,0,0,0-.28-.3c-.2-.19-.42-.37-.63-.55C129.41,364.27,127.6,363,125.78,361.63Z" style="fill: rgb(38, 50, 56); transform-origin: 126.31px 367.435px;" id="el15dlpy1vmzh" class="animable"></path><path d="M85.75,315.81c13-10.23,31.82-8.06,43.58,8.43s2.14,35-4.43,40.17c-4.74,3.72-26.63,14.6-42.35-5.46C69.11,341.81,72.75,326,85.75,315.81Z" style="fill: rgb(255, 255, 255); transform-origin: 104.471px 340.158px;" id="ela6rmzxc3xs" class="animable"></path><path d="M85.75,315.81a29.56,29.56,0,0,1,10.58-5.31,27.74,27.74,0,0,1,11.82-.5,29.76,29.76,0,0,1,11,4.34,37.34,37.34,0,0,1,8.76,8,29.37,29.37,0,0,1,6.81,22.2,34.5,34.5,0,0,1-3.34,11.4c-.46.88-.94,1.76-1.45,2.61a29.74,29.74,0,0,1-1.69,2.46,17.8,17.8,0,0,1-4.26,4.18,36,36,0,0,1-11,4.63,31.18,31.18,0,0,1-11.86.66,26.68,26.68,0,0,1-11-4.27,34.83,34.83,0,0,1-4.6-3.79,37,37,0,0,1-3.84-4.55,40.25,40.25,0,0,1-5.78-10.39,27.92,27.92,0,0,1-1.78-11.69,25.21,25.21,0,0,1,3.64-11.23A33.32,33.32,0,0,1,85.75,315.81Zm0,0a33,33,0,0,0-7.94,8.79,25,25,0,0,0-3.6,11.22A27.75,27.75,0,0,0,76,347.47a40.15,40.15,0,0,0,5.79,10.34,37.69,37.69,0,0,0,3.84,4.53,34.52,34.52,0,0,0,4.59,3.76,26.47,26.47,0,0,0,11,4.21,31,31,0,0,0,11.78-.68A36.18,36.18,0,0,0,123.87,365a17.3,17.3,0,0,0,4.21-4.11,29.41,29.41,0,0,0,1.69-2.44c.51-.84,1-1.71,1.44-2.59a34.08,34.08,0,0,0,3.35-11.32,29.24,29.24,0,0,0-6.72-22.11,37.09,37.09,0,0,0-8.71-8,29.71,29.71,0,0,0-11-4.36,27.65,27.65,0,0,0-11.8.47A29.53,29.53,0,0,0,85.75,315.81Z" style="fill: rgb(38, 50, 56); transform-origin: 104.48px 340.178px;" id="elo48jwtp6e7b" class="animable"></path><path d="M85.75,315.81c13-10.23,31.82-8.06,43.58,8.43s2.14,35-4.43,40.17c-4.74,3.72-26.63,14.6-42.35-5.46C69.11,341.81,72.75,326,85.75,315.81Z" style="fill: rgb(255, 255, 255); transform-origin: 104.471px 340.158px;" id="elj9ew8lo0cfg" class="animable"></path><path d="M85.75,315.81a29.56,29.56,0,0,1,10.58-5.31,27.74,27.74,0,0,1,11.82-.5,29.76,29.76,0,0,1,11,4.34,37.34,37.34,0,0,1,8.76,8,29.37,29.37,0,0,1,6.81,22.2,34.5,34.5,0,0,1-3.34,11.4c-.46.88-.94,1.76-1.45,2.61a29.74,29.74,0,0,1-1.69,2.46,17.8,17.8,0,0,1-4.26,4.18,36,36,0,0,1-11,4.63,31.18,31.18,0,0,1-11.86.66,26.68,26.68,0,0,1-11-4.27,34.83,34.83,0,0,1-4.6-3.79,37,37,0,0,1-3.84-4.55,40.25,40.25,0,0,1-5.78-10.39,27.92,27.92,0,0,1-1.78-11.69,25.21,25.21,0,0,1,3.64-11.23A33.32,33.32,0,0,1,85.75,315.81Zm0,0a33,33,0,0,0-7.94,8.79,25,25,0,0,0-3.6,11.22A27.75,27.75,0,0,0,76,347.47a40.15,40.15,0,0,0,5.79,10.34,37.69,37.69,0,0,0,3.84,4.53,34.52,34.52,0,0,0,4.59,3.76,26.47,26.47,0,0,0,11,4.21,31,31,0,0,0,11.78-.68A36.18,36.18,0,0,0,123.87,365a17.3,17.3,0,0,0,4.21-4.11,29.41,29.41,0,0,0,1.69-2.44c.51-.84,1-1.71,1.44-2.59a34.08,34.08,0,0,0,3.35-11.32,29.24,29.24,0,0,0-6.72-22.11,37.09,37.09,0,0,0-8.71-8,29.71,29.71,0,0,0-11-4.36,27.65,27.65,0,0,0-11.8.47A29.53,29.53,0,0,0,85.75,315.81Z" style="fill: rgb(38, 50, 56); transform-origin: 104.48px 340.178px;" id="eldgqmf4q4tof" class="animable"></path><polygon points="119.94 339.46 122.33 341.93 115.92 344.02 117.07 346.14 116.15 346.69 114.85 344.65 109.93 349.26 108.92 345.98 99.71 344.58 100.74 342.94 96.93 339.04 100.88 337.47 100.29 334.98 105.96 336.75 100.75 329.59 103.24 329.64 103 323.39 108.36 326.62 109.51 324.41 113.28 332.42 114.45 326.6 116.35 328.31 119.63 325.61 121.21 330.83 123.15 330.72 119.94 339.46" style="fill: rgb(187, 11, 11); transform-origin: 110.04px 336.325px;" id="el0537t1dme1qv" class="animable"></polygon><g id="eli6uwee13puh"><path d="M114.83,326.79a11,11,0,1,1-8.34-13.1A11,11,0,0,1,114.83,326.79Z" style="fill: rgb(255, 255, 255); opacity: 0.4; transform-origin: 104.087px 324.424px;" class="animable"></path></g><path d="M154,348.55c-7.26-11.28-9.21-24.19-9.77-37.36a120.54,120.54,0,0,1,1-23.1c0-.17.29-.12.26.05a114.34,114.34,0,0,0-.59,20.6A133,133,0,0,0,147,328.65c2.6,12.91,9.63,23.8,18.67,33.18,5.08,5.28,10.63,10.07,16.16,14.87a.15.15,0,0,1-.19.22C171.54,368.51,161.18,359.71,154,348.55Z" style="fill: rgb(38, 50, 56); transform-origin: 162.959px 332.46px;" id="eladg4mxoefhu" class="animable"></path><path d="M147.91,289.79s2.56,7.56,2.16,8-10.18.67-10.4.27S141,290,141,290Z" style="fill: rgb(187, 11, 11); transform-origin: 144.881px 294.028px;" id="el9max40k24pv" class="animable"></path><path d="M143.14,229.14c16.58-.42,30.35,12.52,29.93,32.77s-19.18,29.38-27.52,29.59c-6,.15-30.08-4.18-30.73-29.66C114.27,240.07,126.62,229.56,143.14,229.14Z" style="fill: rgb(187, 11, 11); transform-origin: 143.941px 260.317px;" id="elanghkdtlr26" class="animable"></path><path d="M143.14,229.14c16.58-.42,30.35,12.52,29.93,32.77s-19.18,29.38-27.52,29.59c-6,.15-30.08-4.18-30.73-29.66C114.27,240.07,126.62,229.56,143.14,229.14Z" style="fill: rgb(187, 11, 11); transform-origin: 143.941px 260.317px;" id="el7pd32orfnps" class="animable"></path><g id="el7q6ivu73yxs"><circle cx="152.73" cy="246.99" r="10.98" style="fill: rgb(255, 255, 255); opacity: 0.4; transform-origin: 152.73px 246.99px; transform: rotate(-28.25deg);" class="animable"></circle></g><path d="M355.66,326.21c7.67-11,10.11-23.84,11.16-37a121.48,121.48,0,0,0-.13-23.12c0-.18-.28-.13-.26,0a113.53,113.53,0,0,1-.18,20.61,133.52,133.52,0,0,1-2.84,19.81c-3.08,12.8-10.51,23.43-19.89,32.47-5.28,5.09-11,9.66-16.71,14.26-.15.12,0,.34.19.23C337.4,345.5,348.08,337.09,355.66,326.21Z" style="fill: rgb(38, 50, 56); transform-origin: 347.029px 309.736px;" id="el1e2qt00rmed" class="animable"></path><path d="M363.94,267.72s-2.84,7.46-2.45,7.89,10.15,1.05,10.38.65-1-8.11-1-8.11Z" style="fill: rgb(255, 255, 255); transform-origin: 366.676px 272.054px;" id="el19gwb2lnyke" class="animable"></path><path d="M363.94,267.72c-.75,2.11-1.5,4.24-2.13,6.39-.07.26-.15.54-.2.81s-.05.27-.07.4a1.2,1.2,0,0,0,0,.19c0,.05,0,.06.08.08a8.77,8.77,0,0,0,1.64.27c1.11.13,2.23.21,3.35.27s2.24.12,3.36.13a11.4,11.4,0,0,0,1.66,0c.05,0,.15,0,.13,0l0-.13c0-.13,0-.27,0-.41l-.08-.83c-.25-2.23-.59-4.45-.94-6.67l.07.07C368.55,268.08,366.26,267.89,363.94,267.72Zm0,0c2.28.12,4.58.21,6.89.35h.06v.06c.37,2.21.73,4.43,1,6.66l.08.85c0,.14,0,.28,0,.43a.42.42,0,0,1-.08.27.45.45,0,0,1-.26.1,12.19,12.19,0,0,1-1.7.06c-1.13,0-2.25-.08-3.37-.16s-2.25-.17-3.36-.3a11,11,0,0,1-1.68-.3c-.07,0-.19-.11-.18-.21a1.76,1.76,0,0,1,0-.23c0-.15,0-.29.07-.43s.14-.54.22-.82C362.31,271.91,363.13,269.81,363.94,267.72Z" style="fill: rgb(38, 50, 56); transform-origin: 366.653px 272.114px;" id="el5fmldvksfab" class="animable"></path><path d="M371,207.29c-16.55-1-30.79,11.38-31.13,31.63s18.08,30.07,26.41,30.59c6,.38,30.21-3.06,31.8-28.49C399.4,219.28,387.46,208.32,371,207.29Z" style="fill: rgb(255, 255, 255); transform-origin: 369.023px 238.385px;" id="el7i8i16x6a8" class="animable"></path><path d="M371,207.29a29.31,29.31,0,0,0-11.71,1.64,27.65,27.65,0,0,0-10,6.3,29.55,29.55,0,0,0-6.58,9.82A37.27,37.27,0,0,0,340,236.59a29.23,29.23,0,0,0,7,22,33.93,33.93,0,0,0,9.17,7.43c.88.47,1.76.91,2.66,1.32s1.82.78,2.77,1.05a17.43,17.43,0,0,0,5.8,1A35.92,35.92,0,0,0,379,267.07,31.27,31.27,0,0,0,389.1,261a26.53,26.53,0,0,0,6.66-9.7,34.11,34.11,0,0,0,1.65-5.7,37.72,37.72,0,0,0,.61-5.91,40.09,40.09,0,0,0-1.1-11.8,27.63,27.63,0,0,0-5.11-10.62,25,25,0,0,0-9.32-7.2A33,33,0,0,0,371,207.29Zm0,0A33.05,33.05,0,0,1,382.5,210a25.1,25.1,0,0,1,9.36,7.19A28,28,0,0,1,397,227.83a40.58,40.58,0,0,1,1.12,11.83,36.89,36.89,0,0,1-.59,5.93,33.74,33.74,0,0,1-1.64,5.73,26.78,26.78,0,0,1-6.69,9.78,31.05,31.05,0,0,1-10.14,6.17,35.76,35.76,0,0,1-11.65,2.39,17.29,17.29,0,0,1-5.88-1,27.59,27.59,0,0,1-2.79-1.06c-.9-.42-1.8-.87-2.67-1.34a34.2,34.2,0,0,1-9.21-7.5,29.34,29.34,0,0,1-7-22.15A37.22,37.22,0,0,1,342.59,225a29.67,29.67,0,0,1,6.62-9.82,27.59,27.59,0,0,1,10-6.28A29.19,29.19,0,0,1,371,207.29Z" style="fill: rgb(38, 50, 56); transform-origin: 368.943px 238.44px;" id="elnc3aj04zpi9" class="animable"></path><polygon points="370.15 241.92 370.7 245.31 364.25 243.38 363.99 245.78 362.92 245.7 363.01 243.29 356.34 244.27 357.38 240.99 350.62 234.6 352.39 233.83 351.49 228.46 355.63 229.42 356.57 227.03 360.21 231.73 360.02 222.88 362.03 224.34 365.39 219.06 367.96 224.77 370.16 223.61 368.69 232.34 372.97 228.23 373.56 230.72 377.79 230.37 376.12 235.56 377.77 236.57 370.15 241.92" style="fill: rgb(187, 11, 11); transform-origin: 364.205px 232.42px;" id="el3m07qnvhcz3" class="animable"></polygon><g id="el4702um4s8zt"><path d="M386.48,226.31a11,11,0,1,1-8.16-13.21A11,11,0,0,1,386.48,226.31Z" style="fill: rgb(255, 255, 255); opacity: 0.4; transform-origin: 375.77px 223.8px;" class="animable"></path></g><path d="M346.1,383.5a79.53,79.53,0,0,0,17.67-14.56c5.31-6,9.21-12.93,12.56-20.16,4.24-9.17,8.1-18.53,12.17-27.78.06-.14-.17-.22-.24-.08-3.58,7.95-7.17,15.9-10.83,23.81-3.4,7.37-7,14.7-12.12,21.06-10.11,12.6-24.55,20.9-39.43,26.66-9.25,3.58-18.84,6.29-28.39,9-.1,0-.07.19,0,.17C314.26,397.4,331.3,392.66,346.1,383.5Z" style="fill: rgb(38, 50, 56); transform-origin: 342.968px 361.234px;" id="elehjw8uvbhlw" class="animable"></path><path d="M384.3,322s-4.54,6.56-4.27,7.08,9.61,3.44,9.93,3.11.92-8.13.92-8.13Z" style="fill: rgb(187, 11, 11); transform-origin: 385.449px 327.108px;" id="el359w9fmms43" class="animable"></path><path d="M405.54,265c-15.82-5-32.62,3.7-37.78,23.29s10.38,33.51,18.34,36c5.75,1.8,30.07,4.24,37.69-20.08C430.3,283.4,421.31,269.9,405.54,265Z" style="fill: rgb(187, 11, 11); transform-origin: 396.331px 294.482px;" id="elcbqw9ne13bj" class="animable"></path><g id="elj09d5oniui"><path d="M416.42,290.84a11,11,0,1,1,.46-15.52A11,11,0,0,1,416.42,290.84Z" style="fill: rgb(255, 255, 255); opacity: 0.4; transform-origin: 408.861px 282.849px;" class="animable"></path></g></g><g id="freepik--Text--inject-95" class="animable animator-active animator-hidden" style="transform-origin: 249.99px 70.4778px;"><path d="M120.6,112.73l2.63-1.22c1.09-.48,2.14-1,3.28-1.42,2.22-1,4.53-1.88,6.85-2.78,4.64-1.82,9.43-3.48,14.24-5.09,9.65-3.16,19.51-5.9,29.46-8.2-2.95-.67-5.9-1.19-8.9-1.75-9.28-1.68-18.77-3-28.4-3.89l-7-20.73-1.16-3.38c-4.9,1.64-9.77,3.46-14.62,5.34-2.43,1-4.85,1.94-7.27,3L106,74.19c-1.25.57-2.37,1.08-3.82,1.79a39.91,39.91,0,0,1,5.08,1.57,243.35,243.35,0,0,1,23.08,9.88,187.82,187.82,0,0,0-9,20.76l-.59,2.37c-.08.38-.13.76-.2,1.14l-.09.57C120.49,112.43,120.55,112.57,120.6,112.73Z" style="fill: rgb(55, 71, 79); transform-origin: 139.62px 88.5px;" id="elry0y5kevxlb" class="animable"></path><path d="M125.77,47.25l1.41,4.16,11,32.48,1.53,4.49a359.2,359.2,0,0,1,67.42-15.71,328.34,328.34,0,0,1,94.49,1,302.56,302.56,0,0,1,58.54,15.52l1.68-4.44L374,52.69l1.55-4.11a347.78,347.78,0,0,0-67-17.79,372,372,0,0,0-107.06-1.18A402.48,402.48,0,0,0,125.77,47.25Z" style="fill: rgb(69, 90, 100); transform-origin: 250.66px 57.7478px;" id="elk82t7orypxj" class="animable"></path><path d="M369.59,88.66c7.59-3.47,15.29-6.34,23.34-9.19l4.87-1.68-14.13-6.55-14.44-5.86L368,68.73l-7.75,20.48q-7.27.57-14.29,1.21c-4.74.61-9.4,1.27-14,1.93-3,.52-5.91,1.1-8.82,1.66a287.58,287.58,0,0,1,56.53,20.64l-1.43-4.84C375.64,102.82,372.85,95.56,369.59,88.66Z" style="fill: rgb(55, 71, 79); transform-origin: 360.47px 90.015px;" id="ellitn56vgb7m" class="animable"></path><path d="M351.44,86.1c-4-1.51-8.12-2.61-12.19-3.88s-8.22-2.3-12.35-3.37L324.13,90l-1,4c3-.57,6-1.18,9.07-1.7L341.37,91l4.67-.61,4.67-.42,9.5-.78Z" style="fill: rgb(38, 50, 56); transform-origin: 341.67px 86.425px;" id="el2rn6uune8ng" class="animable"></path><path d="M139.76,88.38A321.43,321.43,0,0,1,177.06,94L176.12,90,173.54,78.8c-8.37,1.94-16.69,4.14-24.89,6.68C145.69,86.44,142.69,87.35,139.76,88.38Z" style="fill: rgb(38, 50, 56); transform-origin: 158.41px 86.4px;" id="el5x4q2cxbt4b" class="animable"></path><path d="M157.68,59.7l-7.43,1.88,1.58,6.22a.52.52,0,0,1-.39.63.51.51,0,0,1-.62-.37l-3.4-13.44a.51.51,0,0,1,.37-.62.52.52,0,0,1,.64.36L150,60.59l7.42-1.88-1.57-6.23a.52.52,0,0,1,.37-.62.53.53,0,0,1,.64.37l3.4,13.44a.52.52,0,0,1-1,.25Z" style="fill: rgb(255, 255, 255); transform-origin: 153.834px 60.1447px;" id="elc7n7q7z6zde" class="animable"></path><path d="M171.27,59.81l-6.63,1.43L164.09,65a.52.52,0,0,1-.4.43l-.2,0a.54.54,0,0,1-.43-.6l2.14-14.57a.55.55,0,0,1,.43-.42.54.54,0,0,1,.57.2l8,12.4a.54.54,0,0,1-.13.72l-.18.06a.54.54,0,0,1-.55-.23Zm-6.48.33,5.89-1.27-4.62-7.18Z" style="fill: rgb(255, 255, 255); transform-origin: 168.67px 57.6262px;" id="elzsdkyjum92g" class="animable"></path><path d="M174.88,48.36a.52.52,0,0,1,.41-.59h.07l4.08-.74a4.24,4.24,0,0,1,1.5,8.35l-3.61.7,1,5.75a.53.53,0,0,1-.43.6.52.52,0,0,1-.6-.42Zm5.89,6a3.25,3.25,0,0,0,2.58-3.75,3.21,3.21,0,0,0-3.73-2.59L176,48.7,177.15,55Z" style="fill: rgb(255, 255, 255); transform-origin: 179.653px 54.7004px;" id="el4ssaoa387af" class="animable"></path><path d="M187.41,46.18a.52.52,0,0,1,.43-.58h.07L192,45a4.24,4.24,0,0,1,1.24,8.39l-3.63.58.86,5.78a.52.52,0,0,1-1,.16Zm5.7,6.2a3.25,3.25,0,0,0,2.7-3.67,3.22,3.22,0,0,0-3.65-2.7l-3.64.54.95,6.37Z" style="fill: rgb(255, 255, 255); transform-origin: 192.133px 52.5938px;" id="elud0632d6bip" class="animable"></path><path d="M204.7,51.1l-5.76-6.19a.55.55,0,0,1,0-.73.49.49,0,0,1,.73,0L205.06,50l3.9-6.9a.49.49,0,0,1,.71-.17.52.52,0,0,1,.19.71l-4.15,7.31.77,6.63a.5.5,0,0,1-.44.57.52.52,0,0,1-.57-.45Z" style="fill: rgb(255, 255, 255); transform-origin: 204.366px 50.4979px;" id="elkf8jzvnmm2" class="animable"></path><path d="M219.26,49.1a7.8,7.8,0,0,1,7.3-8.14,8,8,0,0,1,5,1.34,1.26,1.26,0,0,1,.32,1.68,1.24,1.24,0,0,1-1.68.35,5.25,5.25,0,0,0-3.49-.95A5.61,5.61,0,0,0,223,45.15a5.27,5.27,0,0,0-1.31,3.79,5.14,5.14,0,0,0,1.79,3.59,5.63,5.63,0,0,0,3.91,1.29,5.32,5.32,0,0,0,3.34-1.39,1.29,1.29,0,0,1,1.72.13,1.25,1.25,0,0,1-.11,1.71,8,8,0,0,1-4.79,2A7.78,7.78,0,0,1,219.26,49.1Z" style="fill: rgb(255, 255, 255); transform-origin: 225.994px 48.615px;" id="eld6l1xofd4jn" class="animable"></path><path d="M243.8,52.07l-5.17.14-1,2.79a1.17,1.17,0,0,1-1.08.77,1.77,1.77,0,0,1-.41-.05,1.22,1.22,0,0,1-.74-1.52l4.37-12.64a1.19,1.19,0,0,1,1.11-.77,1.17,1.17,0,0,1,1.14.72l5,12.39a1.21,1.21,0,0,1-.66,1.55,1.25,1.25,0,0,1-.41.07,1.14,1.14,0,0,1-1.1-.72Zm-.94-2.31L241,45.23l-1.6,4.62Z" style="fill: rgb(255, 255, 255); transform-origin: 241.221px 48.2792px;" id="elp945dn0bsh" class="animable"></path><path d="M252.27,54.34a1.17,1.17,0,0,1-1.16,1.15A1.16,1.16,0,0,1,250,54.31L250.11,42v0a1.12,1.12,0,0,1,.48-1,1.17,1.17,0,0,1,1.61.28L259,50.83l.12-8.76a1.15,1.15,0,0,1,1.16-1.13,1.19,1.19,0,0,1,1.16,1.16l-.17,12.36a1.15,1.15,0,0,1-2.05.72.91.91,0,0,1-.1-.13l-6.68-9.53Z" style="fill: rgb(255, 255, 255); transform-origin: 255.72px 48.2046px;" id="el1dpwuw1zvtr" class="animable"></path><path d="M273.93,52.7l-5.16-.27-1.19,2.7a1.21,1.21,0,0,1-1.14.69,1.24,1.24,0,0,1-.4-.09,1.19,1.19,0,0,1-.62-1.56l5.36-12.26A1.23,1.23,0,0,1,273,42l4,12.76a1.2,1.2,0,0,1-.78,1.49,1.06,1.06,0,0,1-.41,0,1.14,1.14,0,0,1-1-.8Zm-.75-2.38-1.47-4.65-2,4.47Z" style="fill: rgb(255, 255, 255); transform-origin: 271.188px 48.7613px;" id="el1cz6qczfzex" class="animable"></path><path d="M279.82,55.43,281,42.93a1.15,1.15,0,0,1,1.27-1l2.5.23a7.44,7.44,0,0,1-1.37,14.82l-2.5-.23A1.17,1.17,0,0,1,279.82,55.43Zm2.47-1,1.31.12a5.08,5.08,0,0,0,.93-10.12l-1.31-.12Z" style="fill: rgb(255, 255, 255); transform-origin: 285.667px 49.4671px;" id="elq045agbmmz" class="animable"></path><path d="M301.41,55.43l-5.12-.66-1.39,2.6a1.2,1.2,0,0,1-1.2.6,1.27,1.27,0,0,1-.39-.12,1.21,1.21,0,0,1-.5-1.61l6.28-11.81a1.18,1.18,0,0,1,1.21-.59,1.16,1.16,0,0,1,1,.88l3.05,13a1.21,1.21,0,0,1-.89,1.43,1.39,1.39,0,0,1-.41,0,1.15,1.15,0,0,1-1-.88ZM300.85,53l-1.12-4.76-2.3,4.32Z" style="fill: rgb(255, 255, 255); transform-origin: 298.528px 51.4957px;" id="elvzx49bel1be" class="animable"></path><path d="M313.67,60.88h-.09a.51.51,0,0,1-.36-.59l2.59-13.62a.52.52,0,0,1,.6-.4h.06l2.68.51a7.44,7.44,0,0,1-2.79,14.62Zm2.88-.51A6.4,6.4,0,0,0,319,47.8l-2.21-.42L314.34,60Z" style="fill: rgb(255, 255, 255); transform-origin: 319.202px 53.8965px;" id="elxijarpf3dq" class="animable"></path><path d="M335.42,61.5,328.81,60l-2.07,3.12a.52.52,0,0,1-.55.22c-.05,0-.12,0-.19-.06a.55.55,0,0,1-.13-.73L334,50.24a.58.58,0,0,1,.57-.19.52.52,0,0,1,.43.42l1.93,14.61a.53.53,0,0,1-.42.6,1.54,1.54,0,0,0-.19,0,.54.54,0,0,1-.4-.44Zm-6-2.45,5.86,1.35-1.12-8.46Z" style="fill: rgb(255, 255, 255); transform-origin: 331.361px 57.8578px;" id="elvy79gw3lg5" class="animable"></path><path d="M344.1,60.33,341,52.44a.54.54,0,0,1,.29-.67A.49.49,0,0,1,342,52l2.85,7.39,6.17-5a.49.49,0,0,1,.72.1.51.51,0,0,1-.08.73l-6.56,5.27L343.38,67a.5.5,0,0,1-.63.36.52.52,0,0,1-.36-.62Z" style="fill: rgb(255, 255, 255); transform-origin: 346.414px 59.5392px;" id="elkl0q3ekxizb" class="animable"></path></g><g id="freepik--character-2--inject-95" class="animable" style="transform-origin: 273.864px 270.9px;"><path d="M269.47,369.71l-26.73,31.87c-5.15,6.07-9.55,11.47-11.56,14.49,0,0,0,0,0,0a5.5,5.5,0,0,0-1.14,2.26s0,.05,0,.07c.77,2.75,48,45.25,50.18,46.18s5-5.12,4.44-8.24-11.34-27.48-11.34-27.48l26.41-32.09Z" style="fill: rgb(211, 118, 106); transform-origin: 264.885px 417.193px;" id="elu3c8odzax6" class="animable"></path><path d="M248.22,395l-5.48,6.54c-5.15,6.07-9.55,11.47-11.56,14.49,0,0,0,0,0,0a10.66,10.66,0,0,0-1.14,2.26s0,.05,0,.07c.77,2.75,48,45.25,50.18,46.18s5-5.12,4.44-8.24-11.34-27.48-11.34-27.48l5.66-6.56Z" style="fill: rgb(235, 235, 235); transform-origin: 257.386px 429.818px;" id="elhsoncnrohfv" class="animable"></path><path d="M280.19,464.62c-2.15-.93-49.41-43.43-50.18-46.19-.31-1,5.48-8.29,12.73-16.85l.23-.26,30.8,27.08-.48.5s10.81,24.36,11.34,27.49S282.34,465.56,280.19,464.62Z" style="fill: rgb(187, 11, 11); transform-origin: 257.347px 433.019px;" id="elbn0a9r1dgzn" class="animable"></path><polygon points="273.69 428.33 273.69 428.48 273.77 428.4 273.69 428.33" style="fill: rgb(2, 1, 0); transform-origin: 273.73px 428.405px;" id="el84hkye8877e" class="animable"></polygon><g id="elpp0pwfym77h"><path d="M284.63,456.38c-.46-2.76-9-22.12-10.94-26.57v29.46a77.5,77.5,0,0,0,6.5,5.35C282.34,465.55,285.14,459.5,284.63,456.38Z" style="fill: rgb(2, 1, 0); opacity: 0.1; transform-origin: 279.19px 447.263px;" class="animable"></path></g><path d="M281.31,462.31c-7.8-7.36-39.91-36.31-48.18-43-.06-.06-.1,0,0,.05,7.56,7.46,39.92,36.15,48.1,43.07C281.36,462.58,281.47,462.46,281.31,462.31Z" style="fill: rgb(38, 50, 56); transform-origin: 257.229px 440.892px;" id="elzv8f4cxb9" class="animable"></path><path d="M275.77,431.3c-2.61-3.41-6.88-6.37-11.28-6.29-.17,0-.17.24,0,.3a59.57,59.57,0,0,1,10.95,6.37A.27.27,0,0,0,275.77,431.3Z" style="fill: rgb(38, 50, 56); transform-origin: 270.082px 428.352px;" id="el8mnl6nnr0xs" class="animable"></path><path d="M276.81,434.7c-2.61-3.41-6.88-6.37-11.29-6.29-.17,0-.16.24,0,.3a59.91,59.91,0,0,1,10.95,6.37A.27.27,0,0,0,276.81,434.7Z" style="fill: rgb(38, 50, 56); transform-origin: 271.12px 431.755px;" id="ell5izetv2x4" class="animable"></path><path d="M277.84,438.1c-2.61-3.41-6.87-6.38-11.28-6.3-.17,0-.16.25,0,.31a59.49,59.49,0,0,1,10.94,6.37A.27.27,0,0,0,277.84,438.1Z" style="fill: rgb(38, 50, 56); transform-origin: 272.155px 435.15px;" id="elsnqd6s21jwa" class="animable"></path><path d="M282.38,331.12c-2.29,11.31-41.26,69.12-41.26,69.12l34.62,31.68s56.78-73.09,53.3-98.09c-3-21.74-35.58-109.18-35.58-109.18H255.91S284.63,320,282.38,331.12Z" style="fill: rgb(38, 50, 56); transform-origin: 285.157px 328.285px;" id="eli3bm121hh8e" class="animable"></path><path d="M278.69,421.48c-5-4.79-3.51-3.49-8.59-8.23-2.48-2.32-18.8-17.55-21.5-19.31-.06,0-.14.05-.09.11,2,2.53,18.57,17.47,21.1,19.75,5.16,4.64,3.73,3.25,8.94,7.83C278.65,421.72,278.78,421.57,278.69,421.48Z" style="fill: rgb(69, 90, 100); transform-origin: 263.607px 407.799px;" id="el6vuyeev2u8f" class="animable"></path><path d="M288.84,327.39c-.54-2.82-1.15-5.63-1.75-8.45q-1.83-8.61-3.88-17.18-4.05-17-8.82-33.79c-3.2-11.24-6.58-22.46-10.48-33.48-.48-1.36-1-2.72-1.48-4.08a.08.08,0,0,0-.16.05c3.37,11,6.85,22,10,33.15s6.07,22.17,8.82,33.34c1.38,5.6,2.66,11.23,3.92,16.87.61,2.76,1.22,5.54,1.8,8.31a59.54,59.54,0,0,1,1.58,8.57,13,13,0,0,1-2.21,7.72c-1.41,2.3-31.4,53.52-32.38,54.44-.08.07,0,.18.12.11,4.1-3.68,34-55.25,34.79-57.66A15.52,15.52,0,0,0,288.84,327.39Z" style="fill: rgb(69, 90, 100); transform-origin: 271.529px 311.672px;" id="elejf82j1ok0f" class="animable"></path><path d="M273.65,408.88s8.1,39.48,8.1,39.51c.11,7.95.35,14.91.81,18.51,0,0,0,0,0,.05a5.77,5.77,0,0,0,.62,2.45s0,0,.05.05c2.39,1.57,65.95,2.56,68.18,1.85s.37-7.12-2.07-9.13-26.61-13.26-26.61-13.26l-8.5-39.46Z" style="fill: rgb(211, 118, 106); transform-origin: 313.03px 440.207px;" id="el6n4yncx5ywc" class="animable"></path><path d="M351.41,471.3c-2.23.71-65.79-.28-68.18-1.85,0,0,0,0-.05-.05a5.62,5.62,0,0,1-.62-2.45.13.13,0,0,1,0-.06c-.46-3.59-.69-10.55-.8-18.5l-1.41-6.87h40.8l1.59,7.38s24.16,11.27,26.62,13.27S353.65,470.59,351.41,471.3Z" style="fill: rgb(235, 235, 235); transform-origin: 316.386px 456.527px;" id="elkws24qm6069" class="animable"></path><path d="M351.41,471.3c-2.24.71-65.79-.27-68.18-1.85-.92-.58-1.32-9.85-1.48-21.06V448l41,.18,0,.7s24.15,11.26,26.6,13.27S353.64,470.59,351.41,471.3Z" style="fill: rgb(187, 11, 11); transform-origin: 317.082px 459.768px;" id="elgd31n6ot62n" class="animable"></path><path d="M350.73,468.82c-10.71-.43-54-1.15-64.57-.76-.08,0-.08.06,0,.07,10.61.66,53.85,1,64.56.87C351,469,351,468.83,350.73,468.82Z" style="fill: rgb(38, 50, 56); transform-origin: 318.516px 468.488px;" id="elw7dnavcoe" class="animable"></path><path d="M326.18,449.09c-4.21-.86-9.37-.29-12.64,2.66-.13.12,0,.3.18.26a59,59,0,0,1,12.43-2.39A.27.27,0,0,0,326.18,449.09Z" style="fill: rgb(38, 50, 56); transform-origin: 319.936px 450.37px;" id="el2oo67j48u2a" class="animable"></path><path d="M329.19,451c-4.2-.86-9.37-.29-12.63,2.66-.13.12,0,.3.17.26a59.08,59.08,0,0,1,12.44-2.39A.27.27,0,0,0,329.19,451Z" style="fill: rgb(38, 50, 56); transform-origin: 322.953px 452.28px;" id="elia5bxa3gjim" class="animable"></path><path d="M332.21,452.85c-4.21-.85-9.37-.29-12.64,2.67-.13.11,0,.29.17.25a59.08,59.08,0,0,1,12.44-2.39A.27.27,0,0,0,332.21,452.85Z" style="fill: rgb(38, 50, 56); transform-origin: 325.966px 454.132px;" id="elzlinwzqougl" class="animable"></path><path d="M292.62,224.65a153.57,153.57,0,0,0-3.22,18.74c-.78,7.86-1.77,14.81-2.81,15.68s-7.13,4.78-9.12,6c0,0,18.5,56.1,23.28,74.8,6.92,27.11,23.5,108.43,23.5,108.43H280.07s-13.43-77.43-19.3-103.23c-5-22.13-24.33-88.5-24.33-88.5A38.55,38.55,0,0,1,238,224.65S292.63,224.62,292.62,224.65Z" style="fill: rgb(38, 50, 56); transform-origin: 278.98px 336.468px;" id="elxfl5tzmwj6s" class="animable"></path><path d="M322.65,439.71c-6.94,0-4.95-.13-11.89-.09-3.4,0-25.72.17-28.89.75a.07.07,0,0,0,0,.14c3.19.48,25.5-.06,28.9-.15,6.94-.17,5-.2,11.89-.45A.1.1,0,0,0,322.65,439.71Z" style="fill: rgb(69, 90, 100); transform-origin: 302.278px 440.159px;" id="elrv9xa8fdel" class="animable"></path><path d="M289.72,256.85A83.85,83.85,0,0,0,277.53,265a.15.15,0,0,0,.16.25c4.13-2.59,8.36-5.11,12.35-7.92A.29.29,0,0,0,289.72,256.85Z" style="fill: rgb(69, 90, 100); transform-origin: 283.812px 261.04px;" id="elf1wskrvv4gf" class="animable"></path><path d="M286.34,226.33c0-.15-.31-.14-.28,0,.85,5.25,1.23,9.93,1.55,14.91.15,2.31.27,15.19-3.82,14.88-.69-.05-1.13-.65-1.39-1.63a16.2,16.2,0,0,1-.07-3.94c0-2.71,0-5.41-.22-8.11a73.32,73.32,0,0,0-2.47-14.87.13.13,0,0,0-.25,0,139,139,0,0,1,2,20.76c0,3.35-.87,8.54,2.63,8.51s4.55-8.64,4.62-11A76.33,76.33,0,0,0,286.34,226.33Z" style="fill: rgb(69, 90, 100); transform-origin: 284.018px 241.531px;" id="elwhb32ijyyq9" class="animable"></path><path d="M284,256.47a21.1,21.1,0,0,0-.49,2.75,6,6,0,0,0,0,2.2c0,.14.22.12.28,0a7.72,7.72,0,0,0,.59-2.24c.18-.85.37-1.7.52-2.56A.44.44,0,0,0,284,256.47Z" style="fill: rgb(69, 90, 100); transform-origin: 284.157px 258.803px;" id="elfp4pn7j00kk" class="animable"></path><path d="M276.85,427c-.12-1.06-.26-2.11-.4-3.17-.28-2-.61-4-.91-6.06-.6-4.06-1.28-8.1-2-12.15-1.39-8.06-3-16.1-4.68-24.11-.95-4.52-2.06-9-3.23-13.46-.08-.31-.51-.16-.45.14.71,4.09,1.39,8.18,2.2,12.26s1.61,8.11,2.39,12.18c1.55,8,3,16.09,4.52,24.13.44,2.27.83,4.54,1.26,6.81.21,1.14.43,2.27.67,3.4s.57,2.23.75,3.36c0,.11.17.06.16-.05C277,429.2,277,428.09,276.85,427Z" style="fill: rgb(69, 90, 100); transform-origin: 271.152px 399.135px;" id="elaymy084j8ld" class="animable"></path><path d="M305.4,356.67c-1.48-7.33-3.46-14.57-5.45-21.77-4-14.5-8.74-28.78-13.46-43.06l-4.07-12.35c-.68-2.05-4-13.15-4.43-14.2a.09.09,0,0,0-.17,0c.95,3.78,2.26,9.29,3.37,13s2.28,7.37,3.42,11.05c2.26,7.23,4.56,14.45,6.75,21.7,4.33,14.34,8.63,28.67,12.14,43.23,1,4.08,2,8.15,2.87,12.25s3.57,14.24,4.43,18.34c0,.11.21.08.2,0C310.26,377.43,306.87,364,305.4,356.67Z" style="fill: rgb(69, 90, 100); transform-origin: 294.41px 325.081px;" id="el2dpxl56oj8t" class="animable"></path><path d="M277.93,395c-2.43-14-5.34-27.89-8.57-41.71s-6.85-27.69-10.83-41.39-8.39-27.27-13.12-40.72a168.72,168.72,0,0,1-6-19.37c-1.46-6.54-2.2-13.6-.68-20.19a34.83,34.83,0,0,1,1.51-4.91c0-.11-.11-.2-.16-.09-5.32,12.38-1.87,25.92,2.18,38.13,2.21,6.68,4.58,13.32,6.76,20q3.38,10.31,6.45,20.71c4.08,13.74,7.87,27.56,11.26,41.48s6.41,27.94,9.06,42S280.7,417.3,283,431.5c.29,1.85.53,3.7.77,5.56,0,.1.17.1.16,0C282.21,423,280.36,409,277.93,395Z" style="fill: rgb(69, 90, 100); transform-origin: 260.646px 331.852px;" id="elkffjyjvfm2c" class="animable"></path><path d="M276.35,165.79c6.72,13.21,13.75,26,20.74,31,7.78,5.55,21.19,1.43,37-7.4,3.15-1.76-8.65-28.87-11.92-26.82-8.53,5.34-17,11.92-19.21,11.28-1.78-.53-8.08-7.15-16.24-14C273.76,149,271.63,156.49,276.35,165.79Z" style="fill: rgb(211, 118, 106); transform-origin: 304.336px 176.9px;" id="eld48iurdzhx" class="animable"></path><path d="M299.08,169.65l-13.89,16.81s-9.67-15.78-11.62-24.75,1.69-11.83,8.55-6.75S299.08,169.65,299.08,169.65Z" style="fill: rgb(187, 11, 11); transform-origin: 286.063px 169.459px;" id="elramuct49jx" class="animable"></path><path d="M283.11,181.1c.58-1.36,6.51-9.51,11.45-14.68a.08.08,0,1,1,.12.11c-.47.63-10.26,13.72-11.4,14.71C283.19,181.33,283.07,181.19,283.11,181.1Z" style="fill: rgb(38, 50, 56); transform-origin: 288.902px 173.831px;" id="ele47rvbfkqac" class="animable"></path><g id="elfjhx6veeaek"><path d="M292,178.22l-6.82,8.24s-9.67-15.77-11.62-24.75c-1.34-6.19,0-9.48,3.17-9.23Z" style="opacity: 0.05; transform-origin: 282.522px 169.463px;" class="animable"></path></g><path d="M339.78,192.43c-5.68,2.45-19.25,2.91-22.57,1.77S312.34,170,315,167.61s22.46-9.15,28.54-7.48S345.67,189.9,339.78,192.43Z" style="fill: rgb(211, 118, 106); transform-origin: 330.117px 177.33px;" id="el5b5gg5aic43" class="animable"></path><path d="M282.3,133.83c0-2.6-.54-4.43-1.81-5.55-1.82-1.63-5.16-1.81-10.56-.77a172.78,172.78,0,0,0-17.6,4.85c-9.86,3.1-30.13,7.63-37.3,4-5.78-2.9-6.38-8.48-7.14-13.77-1.6-11.16-6.86-13.49-8.43-13.94A20.07,20.07,0,0,0,192,108l.29-5.31.3-5.3.29-5.3.29-5.3.3-5.31.29-5.3c1.8-.27,13.87-3.41,16.06,6.94,1.8,8.5,5.43,9.29,9.24,9.87,6,.92,14.39-.23,38.17-8.81,2.48-.9,5.12-1.87,7.95-2.94,6.09-2.29,15.5-5.32,18.85-3.69a2.06,2.06,0,0,1,.86.69,2.14,2.14,0,0,1,.39,1.37l-.05.87-.45,8v.12l-.5,9-.5,9-.5,9-.5,9Z" style="fill: rgb(255, 255, 255); transform-origin: 238.642px 106.615px;" id="elwvps75dxwu" class="animable"></path><path d="M282.3,133.83a11,11,0,0,0-.5-3.51,4.63,4.63,0,0,0-2.24-2.65,8.11,8.11,0,0,0-3.44-.76,22.2,22.2,0,0,0-3.55.22,100.17,100.17,0,0,0-13.85,3.36c-4.55,1.36-9.05,2.93-13.69,4a126,126,0,0,1-14,2.73,60.66,60.66,0,0,1-7.13.59,24.76,24.76,0,0,1-7.12-.65,15.14,15.14,0,0,1-1.71-.61,12.2,12.2,0,0,1-1.56-.91,10.46,10.46,0,0,1-2.6-2.5,16.29,16.29,0,0,1-2.58-6.66c-.45-2.35-.64-4.73-1.22-7a20.4,20.4,0,0,0-2.68-6.5,9.48,9.48,0,0,0-5.37-4.22,20.7,20.7,0,0,0-7-.53l-.23,0V108l1.72-31.81V76l.2,0a26,26,0,0,1,7.11-.6,13.47,13.47,0,0,1,3.53.74l.82.38.42.19.38.25.76.51c.23.19.45.41.67.62a8.85,8.85,0,0,1,2,3,28.25,28.25,0,0,1,1,3.45,12.86,12.86,0,0,0,3.16,6.11c1.68,1.63,4.13,2,6.43,2.3a28.55,28.55,0,0,0,7-.17,91.12,91.12,0,0,0,13.77-3.23c9.06-2.71,17.92-6,26.81-9.3,2.24-.78,4.5-1.5,6.79-2.11a30.34,30.34,0,0,1,7-1.13,8.29,8.29,0,0,1,1.79.17,3.28,3.28,0,0,1,1.64.82,2.29,2.29,0,0,1,.59,1.74l-.11,1.77-.4,7.09v.1h0Zm0,0,2.37-45.15h0v-.12l.39-7.09c0-1.15.42-2.47-.41-3.3a3,3,0,0,0-1.49-.73,8.39,8.39,0,0,0-1.73-.17,29.94,29.94,0,0,0-6.95,1.14c-2.28.61-4.53,1.34-6.76,2.12-8.87,3.27-17.74,6.63-26.81,9.37a93.3,93.3,0,0,1-13.83,3.27,29.32,29.32,0,0,1-7.13.18,22.25,22.25,0,0,1-3.52-.65A7.68,7.68,0,0,1,213.25,91a13.36,13.36,0,0,1-3.3-6.32,26.55,26.55,0,0,0-.95-3.38,8.51,8.51,0,0,0-1.91-2.85c-.21-.19-.41-.4-.63-.58l-.72-.47-.36-.24-.39-.18-.79-.36a13.45,13.45,0,0,0-3.39-.7,25.51,25.51,0,0,0-7,.58l.21-.22-1.8,31.81-.21-.22a21.22,21.22,0,0,1,7.14.55,9.91,9.91,0,0,1,5.59,4.39,20.87,20.87,0,0,1,2.72,6.63c.58,2.33.77,4.72,1.2,7a16.06,16.06,0,0,0,2.51,6.53,10,10,0,0,0,2.52,2.43,10.92,10.92,0,0,0,1.52.88,14,14,0,0,0,1.64.6,24.8,24.8,0,0,0,7,.66A62.34,62.34,0,0,0,231,137a125.57,125.57,0,0,0,14-2.7c4.62-1.1,9.13-2.62,13.7-4A98.7,98.7,0,0,1,272.56,127a21.2,21.2,0,0,1,3.56-.2,8.08,8.08,0,0,1,3.46.79,4.64,4.64,0,0,1,2.24,2.68A10.77,10.77,0,0,1,282.3,133.83Z" style="fill: rgb(38, 50, 56); transform-origin: 238.629px 106.604px;" id="ely3ksmti3gs" class="animable"></path><path d="M279.58,144.93l.53-9.6.54-9.59.52-9.6.54-9.59.52-9.6.54-9.59c.19-2.72,2.28-5,2.53-7.71l-1,18.07-.5,9-.5,9-.5,9-.5,9C282.05,137.6,279.89,141.17,279.58,144.93Z" style="fill: rgb(199, 199, 199); transform-origin: 282.44px 112.29px;" id="eldsysxb9uatw" class="animable"></path><path d="M340.29,145.22l-.79-.71c-7.95-7-13.21-11.66-40.14.16-11.48,5-21.38,9.38-20.66-.64l.68-9.55.69-9.54.68-9.54.69-9.54.68-9.55.69-9.54c0,3.32,5.85,1.83,17.25-4.43,22.62-12.42,36.36-15.12,44.54-8.74l.79.7-.85,11.78-.86,11.84-.84,11.84L342,121.6l-.85,11.83Z" style="fill: rgb(187, 11, 11); transform-origin: 312.027px 110.166px;" id="elzoc4u5t0lri" class="animable"></path><path d="M237.17,136.12c-8.71,1.65-17.81,2.44-22.14.27-5.78-2.9-6.38-8.48-7.14-13.77-1.6-11.16-6.86-13.49-8.43-13.94A20.07,20.07,0,0,0,192,108l.29-5.31.3-5.3.29-5.3.29-5.3.3-5.31.29-5.3c1.8-.27,13.87-3.41,16.06,6.94,1.8,8.5,5.43,9.29,9.24,9.87,4.27.66,9.66.27,20.81-3Z" style="fill: rgb(187, 11, 11); transform-origin: 215.935px 106.62px;" id="elj15ycf8gnjl" class="animable"></path><polygon points="266.24 113.44 266.97 116.23 261.6 115.16 261.59 117.18 260.73 117.21 260.6 115.19 255.31 116.57 255.87 113.75 249.88 108.98 251.25 108.2 250.08 103.79 253.49 104.24 254.05 102.17 257.38 105.78 256.49 98.41 258.23 99.46 260.5 94.77 263.05 99.31 264.72 98.16 264.27 105.57 267.37 101.78 268.06 103.81 271.44 103.16 270.52 107.63 271.94 108.33 266.24 113.44" style="fill: rgb(187, 11, 11); transform-origin: 260.91px 105.99px;" id="el9silbz93av6" class="animable"></polygon><g id="elmcdxo0x3kh"><path d="M255.7,84.77a32.5,32.5,0,0,0,.59,6.57.1.1,0,0,1,0,0c.51,2.32,1.16,4.77,1.93,7.26s1.53,4.8,2.41,7.18h0c.89,2.45,1.83,4.86,2.79,7.18,1.06,2.58,2.14,5,3.18,7.26,1.35,2.92,2.45,5.34,3.52,7.27,5.78-.94,7.73-.8,9.78.18,0-1.55,2.81-40.89,2.93-41.3A3.87,3.87,0,0,1,283,86h0a31.82,31.82,0,0,0,2.26-5.4A2.35,2.35,0,0,0,285,78.4l-.12-.11a8,8,0,0,0-.95-.71C279.46,75.25,258.35,83.92,255.7,84.77Z" style="opacity: 0.05; transform-origin: 270.56px 102.427px;" class="animable"></path></g><path d="M334.12,237.43a.93.93,0,0,0,.76-.86l11-164.86a.93.93,0,1,0-1.86-.13L333,236.45a.92.92,0,0,0,.87,1A.89.89,0,0,0,334.12,237.43Z" style="fill: rgb(38, 50, 56); transform-origin: 339.439px 154.08px;" id="elqaaeozeeb8f" class="animable"></path><path d="M333.7,159.44c-1.91,2.66,2.33,3.38,2.33,3.38s-6.35.44-7.25,4,4.29,4.06,4.66,4.12c-.34,0-6.15.58-6.69,4.2s4.72,3.56,5.06,3.55c-.31.12-4.37,1.83-4.15,4.67.37,4.88,10.86.8,14.42,2.55,0,0-2.27,6.37-2.3,6.57,0,0,10.06-3.68,12.15-8.61a3.42,3.42,0,0,0-1.1-4.14s3.37-.83,3.89-3.66c.26-1.46-1.84-3.17-1.84-3.17a4.3,4.3,0,0,0,3-3.33c.24-2-1.9-3.44-1.9-3.44s2.22-1.93,1.8-4.09C354.92,157.63,337.78,153.73,333.7,159.44Z" style="fill: rgb(211, 118, 106); transform-origin: 341.305px 174.532px;" id="elwv0aealm0m8" class="animable"></path><path d="M353.66,165.81s.09-.06,0-.08a30.42,30.42,0,0,0-17.89-3c-.19,0-.22.36,0,.36A62.59,62.59,0,0,1,353.66,165.81Z" style="fill: rgb(38, 50, 56); transform-origin: 344.658px 164.128px;" id="elqhi6jvojd4a" class="animable"></path><path d="M353,172.83c.07,0,.1-.09,0-.12a28.53,28.53,0,0,0-19.72-2c-.23.06-.37.35-.1.3C337.72,170,347.56,171.1,353,172.83Z" style="fill: rgb(38, 50, 56); transform-origin: 343.048px 171.313px;" id="elo8nhkqb6bkj" class="animable"></path><path d="M331.39,178.93c6.47-1.6,12.8-1,19.22.62.08,0,.1-.1,0-.13-2.93-1.63-7.12-2.22-10.42-2.4a17.7,17.7,0,0,0-8.9,1.68C331.22,178.76,331.25,179,331.39,178.93Z" style="fill: rgb(38, 50, 56); transform-origin: 340.966px 178.262px;" id="elc2bd3tmii8i" class="animable"></path><path d="M336,162.82a20.09,20.09,0,0,0-3.55.91,6.87,6.87,0,0,0-3,1.89,2.19,2.19,0,0,0-.49,1.5,3.14,3.14,0,0,0,.51,1.55,3.92,3.92,0,0,0,2.8,1.52l2.67.32-2.62.62a11.3,11.3,0,0,0-3.29,1.35,4,4,0,0,0-2,2.55,2.25,2.25,0,0,0,1.25,2.54,6.78,6.78,0,0,0,3.37.54l3.17-.2L332,179.13a10.21,10.21,0,0,0-2.29,1.31,4.25,4.25,0,0,0-1.52,1.93,2,2,0,0,0,.47,2.08,4.44,4.44,0,0,0,2.34.88,36.19,36.19,0,0,0,5.52.09c.93,0,1.86-.06,2.8,0a6.57,6.57,0,0,1,2.75.48,7.08,7.08,0,0,0-2.75-.22c-.92.05-1.85.15-2.77.25a30.23,30.23,0,0,1-5.64.21,5.26,5.26,0,0,1-2.84-1,2.87,2.87,0,0,1-.82-3,5.26,5.26,0,0,1,1.83-2.44,11,11,0,0,1,2.52-1.5l.25,1a7.83,7.83,0,0,1-4-.6,3.28,3.28,0,0,1-1.57-1.55,3.71,3.71,0,0,1-.24-2.17,5,5,0,0,1,2.48-3.23,12,12,0,0,1,3.64-1.43l.05.95a4.71,4.71,0,0,1-3.37-2.06,4,4,0,0,1-.52-2,2.8,2.8,0,0,1,.71-1.88,6.88,6.88,0,0,1,3.31-1.82A16.2,16.2,0,0,1,336,162.82Z" style="fill: rgb(38, 50, 56); transform-origin: 334.022px 174.504px;" id="el4r2k88amjih" class="animable"></path><path d="M318.2,165.86s18.06-19,22-8.32c1.18,3.18,2.24,17.65-.66,17.92-3.75.35-5.32-5.61-5.71-9.51,0,0-5.24,7.34-11.43,5.22A6.49,6.49,0,0,1,318.2,165.86Z" style="fill: rgb(211, 118, 106); transform-origin: 329.802px 164.879px;" id="elmb6l0o1m1xj" class="animable"></path><path d="M339.85,156.67a13.8,13.8,0,0,1,1.29,3.79,29.41,29.41,0,0,1,.56,4,46,46,0,0,1,0,8,7.71,7.71,0,0,1-.48,2.08,3,3,0,0,1-.69,1,2,2,0,0,1-.56.38,1.94,1.94,0,0,1-.64.16,3.35,3.35,0,0,1-2.25-.65,6.26,6.26,0,0,1-1.49-1.6,12.21,12.21,0,0,1-1.55-3.84,26.34,26.34,0,0,1-.64-4l.84.22a16.65,16.65,0,0,1-2.1,2.25,14.93,14.93,0,0,1-2.46,1.8,10.17,10.17,0,0,1-2.84,1.11,7.84,7.84,0,0,1-3,.12,9,9,0,0,0,2.92-.43,10.86,10.86,0,0,0,2.62-1.3,14.76,14.76,0,0,0,2.25-1.85,15.53,15.53,0,0,0,1.85-2.23l.67-1,.18,1.2a28.63,28.63,0,0,0,.74,3.84,11.75,11.75,0,0,0,1.45,3.49c.67,1,1.68,1.87,2.7,1.77s1.28-1.43,1.45-2.66a38.88,38.88,0,0,0,.29-3.91c.05-1.32.08-2.64,0-4A25.46,25.46,0,0,0,339.85,156.67Z" style="fill: rgb(38, 50, 56); transform-origin: 332.857px 166.38px;" id="elxxi8z08grf" class="animable"></path><path d="M294,226.82c-1.37,1.48-59.17,7.64-59.5,7.24-.88-1.08,4.43-59.49,28.11-80.89,4.18-3.77,11.55-2.69,15-.75,1.71,1,4.68,9,7.58,18.46C287.32,178.08,294.81,225.87,294,226.82Z" style="fill: rgb(235, 235, 235); transform-origin: 264.236px 192.365px;" id="el1w5rpin5dhm" class="animable"></path><polygon points="282.44 179.94 283.12 181.57 280.51 181.37 280.75 182.61 280.36 182.7 280.05 181.48 277.77 182.76 277.69 181 274.35 178.59 274.88 178 273.81 175.41 275.44 175.4 275.44 174.09 277.42 176.01 276.11 171.59 277.04 172.08 277.52 169.04 279.25 171.59 279.88 170.75 280.58 175.31 281.55 172.73 282.11 173.91 283.59 173.23 283.71 176.03 284.45 176.35 282.44 179.94" style="fill: rgb(187, 11, 11); transform-origin: 279.13px 175.9px;" id="elhl8v4uv8lip" class="animable"></polygon><path d="M276.11,164.08c-3.47,1.15-10-3.74-12.82-7.92-.19-.28,0-12.43-.2-14.84,0-.49,15.46,2.36,15.46,2.36a38.75,38.75,0,0,0-.65,9.38C277.93,153.41,279.47,163,276.11,164.08Z" style="fill: rgb(211, 118, 106); transform-origin: 270.82px 152.757px;" id="elrug792taa4j" class="animable"></path><path d="M278.56,143.67h0c0,.08-.07.38-.15.87-.14.83-.34,2.17-.46,3.69a27.67,27.67,0,0,0,0,4.82,3.31,3.31,0,0,0,0,.33v.05c0,.2.07.46.1.77a8.83,8.83,0,0,1-1.46.21c-8.26.53-11.91-9.34-13-13.15l.26,0q.62,0,1.59.18l.49.07c1,.14,2.26.34,3.54.54l1.27.21,2.7.46c.37.08.74.14,1.08.2l1.1.19.51.09.24,0,1.28.23.62.11.26.06h.05Z" style="fill: rgb(38, 50, 56); transform-origin: 271.085px 147.845px;" id="elihywwsz3pn" class="animable"></path><path d="M260.12,123.62c-1.46,5.44,1.89,20.88,5.83,24.22,5.72,4.84,14.83,5,18.88-1.79,3.93-6.6-.79-26.65-5.17-29.65C273.2,112,262.29,115.6,260.12,123.62Z" style="fill: rgb(211, 118, 106); transform-origin: 273.035px 132.915px;" id="elcgrwerb0woh" class="animable"></path><path d="M262.36,138.74c2.76-.89,1.55-8.07,1.55-8.07s3.28-1.95,3.24-8.66c0,0,3.55,6,15.05,2.46a10.23,10.23,0,0,0-1.95-6,42.89,42.89,0,0,1,4.1,5.8s1.06-10.27-7.9-12.22c-3.56-.78-8.55.4-15.54,5.56,0,0-2.29-4.33-3.07-3.57s1.69,4.75,1.69,4.75-3.55-.44-4,.36,3,1,3,1a6.77,6.77,0,0,0-2.94,8.35C257.38,133.81,261,139.18,262.36,138.74Z" style="fill: rgb(38, 50, 56); transform-origin: 269.755px 125.298px;" id="ely9332ge71nh" class="animable"></path><path d="M259.47,119.9a6.19,6.19,0,0,0-5.3,6.25,11.58,11.58,0,0,0,1.62,5,21.68,21.68,0,0,0,3.35,4.34c.07.08.17,0,.1-.12a16.38,16.38,0,0,1-2.81-4.16,15.22,15.22,0,0,1-1.58-4.54,5.94,5.94,0,0,1,4.66-6.56C259.61,120.05,259.57,119.89,259.47,119.9Z" style="fill: rgb(38, 50, 56); transform-origin: 256.868px 127.711px;" id="el171sgdkuzwp" class="animable"></path><path d="M269.45,111.65a23.85,23.85,0,0,0-5.38,3.15A17.38,17.38,0,0,0,259.9,119a.08.08,0,0,0,.12.11,31.35,31.35,0,0,1,9.26-6.47c3.14-1.54,7.06-2.24,10.06,0,.05,0,.11,0,.07-.07C276.65,110.12,272.66,110.35,269.45,111.65Z" style="fill: rgb(38, 50, 56); transform-origin: 269.651px 114.914px;" id="elflcxo6wfvxv" class="animable"></path><path d="M264.05,136.27s-3.59-5-5.86-3.68.49,8.53,3.19,9.49a2.73,2.73,0,0,0,3.63-1.52Z" style="fill: rgb(211, 118, 106); transform-origin: 261.18px 137.336px;" id="eloh889ufhg3p" class="animable"></path><path d="M259,134.64s0,.06,0,.08c1.89.73,2.91,2.45,3.63,4.25a1.51,1.51,0,0,0-2.26-.38c-.05,0,0,.11.05.1a1.68,1.68,0,0,1,1.85.56,7.74,7.74,0,0,1,.91,1.48c.09.16.39.07.33-.12l0-.05C263.52,138.17,261.61,134.85,259,134.64Z" style="fill: rgb(38, 50, 56); transform-origin: 261.259px 137.726px;" id="el80llnel2tdh" class="animable"></path><path d="M273,133.12s-.07.07-.06.12c.33,1,.53,2.19-.29,2.79,0,0,0,.07,0,.05C273.74,135.6,273.45,134,273,133.12Z" style="fill: rgb(38, 50, 56); transform-origin: 273.026px 134.602px;" id="elfs3kdxpn2we" class="animable"></path><path d="M271.78,132.33c-1.65.35-.84,3.63.69,3.31S273.17,132,271.78,132.33Z" style="fill: rgb(38, 50, 56); transform-origin: 272.08px 133.984px;" id="elvqff92cgbxi" class="animable"></path><path d="M279.13,131.6s.09,0,.1.07c.22,1,.65,2.16,1.65,2.27,0,0,0,.06,0,.06C279.72,134.12,279.18,132.61,279.13,131.6Z" style="fill: rgb(38, 50, 56); transform-origin: 280.005px 132.803px;" id="el6dyp3bjcfcu" class="animable"></path><path d="M279.78,130.31c1.61-.53,2.54,2.73,1.06,3.22S278.43,130.76,279.78,130.31Z" style="fill: rgb(38, 50, 56); transform-origin: 280.354px 131.916px;" id="el4f813tqxwxo" class="animable"></path><path d="M270.12,131.55a12.86,12.86,0,0,0,1.16-.76c.44-.3.83-.49,1-1A.73.73,0,0,0,272,129a1.75,1.75,0,0,0-1.78.25,2.6,2.6,0,0,0-1.19,1.46A.76.76,0,0,0,270.12,131.55Z" style="fill: rgb(38, 50, 56); transform-origin: 270.659px 130.248px;" id="el9wjxh493ppw" class="animable"></path><path d="M280.65,128a12.87,12.87,0,0,1-1.39,0,2.25,2.25,0,0,1-1.42-.29.73.73,0,0,1-.17-.86,1.78,1.78,0,0,1,1.64-.74,2.54,2.54,0,0,1,1.78.58A.76.76,0,0,1,280.65,128Z" style="fill: rgb(38, 50, 56); transform-origin: 279.464px 127.059px;" id="elemvw7aff43s" class="animable"></path><path d="M274.93,142.56c.3.17.63.44,1,.38a2.74,2.74,0,0,0,1-.53,0,0,0,0,1,.06.05,1.43,1.43,0,0,1-1.16.87,1.13,1.13,0,0,1-1-.7C274.81,142.57,274.88,142.53,274.93,142.56Z" style="fill: rgb(38, 50, 56); transform-origin: 275.908px 142.87px;" id="el8puokyctj7y" class="animable"></path><path d="M275.25,139.24a3.51,3.51,0,0,0,2.69,1,4.27,4.27,0,0,0,1.26-.25l.23-.08.22-.09a.26.26,0,0,0,.14-.28h0l0-.1h0l0-.09c-.17-.79-.54-2-.54-2,.32.07,1.94.37,1.82,0a53.67,53.67,0,0,0-3.94-10.16.1.1,0,0,0-.18.07c.88,3.25,2.31,6.32,3.24,9.57a6.3,6.3,0,0,0-1.76-.09c-.1.06.76,2.26.81,2.62v0a5,5,0,0,1-3.86-.23C275.23,139.09,275.16,139.18,275.25,139.24Z" style="fill: rgb(38, 50, 56); transform-origin: 278.143px 133.698px;" id="el6qeltre1vo4" class="animable"></path><path d="M278.64,139.68a4.18,4.18,0,0,1-1.33,1.68,1.93,1.93,0,0,1-1.11.35c-.86,0-1.07-.75-1.08-1.43a5,5,0,0,1,.13-1.07A5.48,5.48,0,0,0,278.64,139.68Z" style="fill: rgb(38, 50, 56); transform-origin: 276.88px 140.46px;" id="eluiiihkg1z9q" class="animable"></path><path d="M277.31,141.36a1.93,1.93,0,0,1-1.11.35c-.86,0-1.07-.75-1.08-1.43A2,2,0,0,1,277.31,141.36Z" style="fill: rgb(255, 154, 187); transform-origin: 276.215px 140.975px;" id="elcv922zf22t" class="animable"></path><path d="M255.5,168.53c-.13,22.69,4.73,47.56,9.7,51.14,5.48,4,31.77,11.73,45.63,11.94,3.65.06,2.27-28.79-1.63-29-7.52-.42-25.74-3.76-28.38-4.42-2.22-.56-6.18-14.54-12.72-29C263.08,158.08,255.57,157,255.5,168.53Z" style="fill: rgb(211, 118, 106); transform-origin: 284.227px 195.984px;" id="elr2ckhi3arfn" class="animable"></path><path d="M344.2,199.63a4.35,4.35,0,0,1-.71,4.92,6.49,6.49,0,0,1,2.87,3.32c.83,2.53-2.76,4.95-2.76,4.95a8,8,0,0,1,2.47,4c.55,2.5-2.73,5.46-2.73,5.46a7,7,0,0,1,0,4.88c-1.76,4.12-8.53,5.18-12.83,5.89s-17.15-1.28-19.64-1.42L306,204.07s18.35-8.68,23.53-8.81C333.89,195.16,342.56,196.65,344.2,199.63Z" style="fill: rgb(211, 118, 106); transform-origin: 326.242px 214.229px;" id="ellyfilnnl4b" class="animable"></path><path d="M343.22,204.14c-4.66-1-9.36-.57-14.07-.41-.11,0-.1.17,0,.16,4.69-.21,9.36.5,14.05.47A.11.11,0,0,0,343.22,204.14Z" style="fill: rgb(38, 50, 56); transform-origin: 336.196px 203.93px;" id="elhphtgy74ce7" class="animable"></path><path d="M343.45,212.47a12.63,12.63,0,0,0-3.25.05c-1.15.1-2.29.22-3.44.35-2.29.27-4.57.59-6.84,1-.1,0-.1.18,0,.16,2.28-.26,4.56-.49,6.85-.66l3.45-.23a15.27,15.27,0,0,0,3.23-.33A.17.17,0,0,0,343.45,212.47Z" style="fill: rgb(38, 50, 56); transform-origin: 336.733px 213.21px;" id="elsbx52tzqaq" class="animable"></path><path d="M343.24,222.27a8.5,8.5,0,0,0-2.92.2l-3.12.42c-2.09.26-4.17.53-6.26.72-.1,0-.1.17,0,.16,2.12-.18,4.25-.34,6.38-.54l3.12-.32a8.07,8.07,0,0,0,2.81-.54C343.31,222.35,343.29,222.28,343.24,222.27Z" style="fill: rgb(38, 50, 56); transform-origin: 337.076px 222.997px;" id="els0q0da0sf07" class="animable"></path><path d="M275.93,184.45l-20.71,9.69s-2.07-19.28.11-28.65,6.9-10.45,11.13-2.56S275.93,184.45,275.93,184.45Z" style="fill: rgb(187, 11, 11); transform-origin: 265.131px 175.903px;" id="els1fdgr9asvp" class="animable"></path><path d="M255.66,188.12c1.16-1,10.43-6.08,17.43-8.76a.09.09,0,0,1,.07.16c-.73.39-15.88,8.39-17.4,8.82C255.64,188.38,255.58,188.2,255.66,188.12Z" style="fill: rgb(38, 50, 56); transform-origin: 264.409px 183.852px;" id="elk6aejrswwlo" class="animable"></path><path d="M271.43,171.26c0-.06-.12,0-.11,0a21,21,0,0,0,.54,2.35c0,.18.1.36.15.54q-1.31-2.58-2.66-5.12a.07.07,0,1,0-.13.06c2.84,6,3.79,9.16,6.46,15.22l-1.73,1a.12.12,0,0,0,.1.22l2.07-.86a.27.27,0,0,0,.14-.27c-1.15-4.2-1.72-5.08-3.64-9-.13-.62-.27-1.26-.44-1.87A15,15,0,0,0,271.43,171.26Z" style="fill: rgb(38, 50, 56); transform-origin: 272.738px 177.264px;" id="elgrbqy5gyuoj" class="animable"></path><path d="M253,177c0-.07.09-.08.11,0a20.57,20.57,0,0,1,.55,2.35c0,.18.07.36.1.54,0-1.92.08-3.85.14-5.76a.07.07,0,1,1,.15,0c.07,6.63.91,13.39,1.16,20,0,0,1.17-.59,1.95-.93.14-.06.15.22,0,.31a5.49,5.49,0,0,1-2.21,1.11.25.25,0,0,1-.25-.19,70.67,70.67,0,0,1-1-13.17c-.15-.62-.31-1.25-.43-1.88A14.64,14.64,0,0,1,253,177Z" style="fill: rgb(38, 50, 56); transform-origin: 255.134px 184.338px;" id="el8f2srq25cqn" class="animable"></path></g><g id="freepik--character-1--inject-95" class="animable" style="transform-origin: 185.94px 294.47px;"><path d="M122.38,470.47c2.22.72,67.18.13,69.57-1.42.92-.57-3.87-62.16-3.87-62.16l-41.34.27,4.31,41.21s-24.11,11.05-26.56,13S120.17,469.75,122.38,470.47Z" style="fill: rgb(173, 99, 89); transform-origin: 156.732px 438.832px;" id="elaasplybtxsr" class="animable"></path><path d="M122.38,470.47c2.22.72,67.18.13,69.57-1.42.29-.18.45-6.42-.48-14.57-11.8,1.83-53.91,7.75-57.16,5.79-2.27-1.37-.22-3.44,1.67-4.83-5.4,2.61-10.44,5.12-11.49,6C122.06,463.38,120.17,469.76,122.38,470.47Z" style="fill: rgb(187, 11, 11); transform-origin: 156.788px 462.627px;" id="el76au7twwjet" class="animable"></path><g id="elj2cdg2cop5i"><path d="M154.16,470.65c17.75-.23,36.53-.78,37.79-1.61.29-.16.45-6.41-.48-14.56-3.92.61-11.2,1.67-19.28,2.74Z" style="fill: rgb(2, 1, 0); opacity: 0.1; transform-origin: 173.168px 462.565px;" class="animable"></path></g><path d="M147.82,438.46h45.54s-8.57-97-8.21-98.82c.45-2.38,3.14-13.15,6.72-27.21,1.12-4.4,2.33-9.12,3.59-14,3.4-13.23,7.14-27.69,10.4-40.28,4.89-18.85,8.71-33.49,8.71-33.49H176s-4.5,14.25-10.17,32.81c-9.24,30.15-21.58,71.65-22.8,81.73C141,355.47,147.82,438.46,147.82,438.46Z" style="fill: rgb(69, 90, 100); transform-origin: 178.611px 331.56px;" id="el8cpvvr3ntl7" class="animable"></path><path d="M149.84,430.69c6.95-.14,5-.2,11.91-.26,3.41,0,25.78-.23,29,.29a.08.08,0,0,1,0,.15c-3.18.52-25.55.33-29,.29-6.95-.06-5-.12-11.91-.26A.11.11,0,0,1,149.84,430.69Z" style="fill: rgb(38, 50, 56); transform-origin: 170.282px 430.803px;" id="elhtkhcnce6q" class="animable"></path><path d="M176.58,333.14c1.49-6.58,3.72-13,5.67-19.5q5.91-19.69,11.91-39.37,3-9.82,6-19.66,1.52-5,3.07-9.92c1-3.24,2.16-6.44,3.08-9.7.37-1.33.57-.6.1,1.08-1,3.4-1.91,6.8-2.9,10.19q-2.94,10.06-5.92,20.12-5.92,20-11.95,40-3,10-6,20a80.88,80.88,0,0,0-2.46,9.69,44.42,44.42,0,0,0-.4,10.37c.43,7,1.24,13.93,1.88,20.88s1.29,13.93,1.94,20.9c1.28,13.86,2,18.32,3.22,32.19.16,1.76.31,3.51.44,5.27,0,.59-.84.55-.9,0-1.5-13.71-2.06-18.06-3.34-31.79l-3.84-41c-.32-3.43-.69-6.87-.69-10.32A42.55,42.55,0,0,1,176.58,333.14Z" style="fill: rgb(38, 50, 56); transform-origin: 191.087px 330.205px;" id="el3tn6vev6ir4" class="animable"></path><path d="M180.36,224.64c2.68,20.72,7.79,59.59,11.51,87.79,8.71-34.17,22.7-87.79,22.7-87.79Z" style="fill: rgb(38, 50, 56); transform-origin: 197.465px 268.535px;" id="el5z3oa74oi68" class="animable"></path><path d="M167.5,471.23c2.21.72,67.17.13,69.56-1.42.92-.57-1-62.16-1-62.16l-41.33.27,1.45,41.21s-24.1,11.05-26.55,13S165.28,470.51,167.5,471.23Z" style="fill: rgb(173, 99, 89); transform-origin: 201.913px 439.592px;" id="el90ehh5tn1z" class="animable"></path><path d="M167.5,471.23c2.21.72,67.17.13,69.56-1.42.29-.18.3-6.26.18-14.57-11.8,1.83-54.57,7.75-57.82,5.79-2.27-1.37-.22-3.45,1.67-4.83-5.4,2.6-10.44,5.12-11.49,6C167.17,464.14,165.28,470.52,167.5,471.23Z" style="fill: rgb(187, 11, 11); transform-origin: 201.913px 463.387px;" id="elyj1iwy5niqe" class="animable"></path><path d="M177.23,224.64s.89,18.46,5.11,33.09c.34,1.21.71,2.4,1.11,3.54A68.2,68.2,0,0,1,194.57,267s.44,14.86.89,31.43C196,316.94,193.08,337.6,193,342c-.39,16.4,1.6,96.3,1.6,96.3l45.54.18S232.33,348,232.39,342c.08-9.65-3.32-76.82-2.74-78.32,7.32-19.17-2.36-39.07-2.36-39.07Z" style="fill: rgb(69, 90, 100); transform-origin: 208.685px 331.545px;" id="elgqf8bxqfhnb" class="animable"></path><path d="M196.15,430.18c6.95-.11,4.95-.18,11.91-.22,3.4,0,25.77-.12,28.95.43a.07.07,0,0,1,0,.14c-3.18.51-25.55.22-28.95.17-7-.09-5-.14-11.92-.32A.1.1,0,1,1,196.15,430.18Z" style="fill: rgb(38, 50, 56); transform-origin: 216.562px 430.388px;" id="elydo2101mtda" class="animable"></path><path d="M181.55,260.17a84,84,0,0,1,13,6.82.15.15,0,0,1-.14.26c-4.39-2.13-8.87-4.19-13.14-6.56A.29.29,0,0,1,181.55,260.17Z" style="fill: rgb(38, 50, 56); transform-origin: 187.861px 263.696px;" id="ela371nb9e0xq" class="animable"></path><path d="M188.41,254q-.21-3.12-.48-6.24c-.42-4.74-.92-9.5-1.75-14.19-.06-.37-.58-.23-.55.12.32,3.68.74,7.36,1.09,11.05s.78,7.34.85,11c0,1.1-.06,3-1.41,3.28-1.82.41-2.69-2-3.12-3.29a60.57,60.57,0,0,1-2.29-10c-.6-3.86-.92-7.78-1.29-11.67,0-.14-.24-.12-.24,0,0,7.73.08,15.81,3,23.1.56,1.42,1.55,2.87,3.2,3.06h.07a.32.32,0,0,0,0,.14c0,.21.09.43.13.64s.07.36.11.54c.08.38.13.76.23,1.13a.28.28,0,0,0,.56-.07.26.26,0,0,0,.16-.22,6.15,6.15,0,0,0-.51-2.19,2.73,2.73,0,0,0,2-1.68A9.63,9.63,0,0,0,188.41,254Z" style="fill: rgb(38, 50, 56); transform-origin: 183.896px 248.134px;" id="elj1h90x2ddj8" class="animable"></path><path d="M225,263.71a85.71,85.71,0,0,1,2-9.5c1.68-7.07.55-16.69-1.26-23.6,0-.19.25-.25.3-.07,1.82,5.88,3.14,14.39,2.43,20.57-.33,2.94-2.69,11.87-2.62,15.06.15,6.29-.36,59.89.07,81.78.28,14.36,3.25,62.52,3.71,76.88,0,.13-.22.13-.23,0-1.66-25.6-3.83-51.76-4.17-76.84C224.91,323.6,224.62,267.19,225,263.71Z" style="fill: rgb(38, 50, 56); transform-origin: 227.225px 327.68px;" id="elnl83sfbbn1c" class="animable"></path><path d="M202.56,232.18c.2,2.2.28,4.41.61,6.6a8.82,8.82,0,0,0,2.46,5.34,13,13,0,0,0,5.13,2.91c2.5.75,10.11.77,12.7.4.65-.1.59.4-.64.67a75.83,75.83,0,0,1-8.4.62,18.1,18.1,0,0,1-4.09-.29,11.48,11.48,0,0,1-5.94-3.09,9.63,9.63,0,0,1-2.45-6,36.67,36.67,0,0,1,.28-7.18C202.24,232,202.54,232,202.56,232.18Z" style="fill: rgb(38, 50, 56); transform-origin: 212.873px 240.389px;" id="elxiostvkxi7" class="animable"></path><path d="M234.79,126.69c5.87,9,.85,18.11,2.58,24.37,1,3.82,6.55,9.13,6.76,13.24.34,6.76-5.5,7.45-5.31,11.12.27,5.21,6.71,6.68,5.6,14.74s-12,13.82-32.85,10.17-29.77-14.26-28.59-21,8.54-7,10.42-11.77c1.2-3-2.31-6.43-.85-12.25s7.63-6.06,9.85-10.72,3.1-17.3,12-21.28S231.9,122.26,234.79,126.69Z" style="fill: rgb(38, 50, 56); transform-origin: 213.713px 161.442px;" id="elqzocbh9e12p" class="animable"></path><path d="M233.84,126.6a17.32,17.32,0,0,1,3.44,7.5,37.89,37.89,0,0,1,.58,8.77,23.25,23.25,0,0,0,.19,5.21,12.59,12.59,0,0,0,1.74,4.14c1.6,2.61,3.77,4.86,5.09,7.65s1.87,5.88.3,8.53c-.86,1.44-2.25,2.41-3.32,3.68s-1.74,2.84-.89,4.33c.72,1.27,2.05,2.15,3,3.28a13.3,13.3,0,0,1,2.11,3.72,10.26,10.26,0,0,1-.4,8.3c-3,5.94-9.94,7.79-16,8.46l-2.55.26c-.13,0-.18-.19,0-.21,6.17-.85,13.34-1.88,17.21-7.37a9.59,9.59,0,0,0,1.41-8.38,12.09,12.09,0,0,0-2-3.87c-.86-1.13-2-2-2.88-3.09a3.88,3.88,0,0,1-.75-3.82,9.68,9.68,0,0,1,2.67-3.58,7.72,7.72,0,0,0,2.52-3.85,8.43,8.43,0,0,0-.44-4.5c-1-2.91-3.06-5.22-4.78-7.69a14.2,14.2,0,0,1-2.94-8.23c0-1.56.17-3.12.23-4.68a39.3,39.3,0,0,0,0-4.34,19.83,19.83,0,0,0-2.22-8.27,11.31,11.31,0,0,0-1.27-1.86C233.68,126.63,233.78,126.54,233.84,126.6Z" style="fill: rgb(38, 50, 56); transform-origin: 236.891px 163.505px;" id="el2rzk7g76414" class="animable"></path><path d="M183.48,174.23a7.92,7.92,0,0,1,2.25-2.53c1-.69,2-1.19,3.05-1.79a5.93,5.93,0,0,0,2.44-2.24,5.63,5.63,0,0,0,.17-3.9,29.39,29.39,0,0,1-.78-4,13.36,13.36,0,0,1,.32-4,13.57,13.57,0,0,1,4.22-6.92c1-.93,2.1-1.77,3.13-2.69a17.32,17.32,0,0,0,2.93-3.4c1.79-2.78,2.92-5.93,4.56-8.79a49.37,49.37,0,0,1,5.94-8.2c.06-.07.14,0,.09.09a44,44,0,0,0-5.28,7.44c-1.42,2.52-2.47,5.2-3.74,7.79a21.12,21.12,0,0,1-2.17,3.63,22.48,22.48,0,0,1-2.73,2.87c-2,1.83-4.06,3.61-5.21,6.14a12.83,12.83,0,0,0-.89,7.94c.47,2.31,1.32,5-.29,7-1.37,1.76-3.61,2.4-5.35,3.68a8.3,8.3,0,0,0-3.22,6c-.56,6,4.29,10.43,9.51,12.25a.13.13,0,0,1-.08.25c-4.6-1.39-9-4.88-9.93-9.82A10.19,10.19,0,0,1,183.48,174.23Z" style="fill: rgb(38, 50, 56); transform-origin: 197.026px 158.299px;" id="elq3iqqoad6mq" class="animable"></path><path d="M208.37,172.08c-17.44,15.44-37.64,27.42-44.8,24.61s-23.76-33.55-24.51-41.48c-.32-3.42,22.15-9.67,25-7.31s9.12,21.72,10.71,23.31c1.16,1.15,17.4-5.69,29.76-9.41C212.38,159.42,217.56,164,208.37,172.08Z" style="fill: rgb(173, 99, 89); transform-origin: 176.16px 172.241px;" id="elzq88s74vsak" class="animable"></path><path d="M140.53,159.73c-1.3-2.92-6.85-18.25-7.32-22.42s-1-16.25,2.21-16.93,3.57,2.85,3.57,2.85.61-5.14,3.85-5.54,3.71,5.11,3.71,5.11,1-5.22,4.26-5.39,2.81,5.45,2.81,5.45.7-4.82,3.44-3.83c3.3,1.19,1,9.94,1.87,14.5.19,1,5.46,20.7,5.46,20.7Z" style="fill: rgb(173, 99, 89); transform-origin: 148.623px 138.568px;" id="elfypbi31uby7" class="animable"></path><path d="M153.65,122.38c-1.67,6.43-1.28,9.54.71,15.77,0,.12-.14.21-.19.08-2.5-5.92-3.55-9.75-.83-15.95C153.48,122,153.73,122.07,153.65,122.38Z" style="fill: rgb(38, 50, 56); transform-origin: 153.048px 130.199px;" id="elyr8mgsv3wyg" class="animable"></path><path d="M146.69,122.29c-1.15,6.84-.76,10.21.84,16.89,0,.1-.13.14-.16,0-2.13-6.42-3.08-10.26-1-16.94C146.43,122,146.74,122,146.69,122.29Z" style="fill: rgb(38, 50, 56); transform-origin: 146.37px 130.668px;" id="el5nphpa6drc8" class="animable"></path><path d="M139.09,123.56c-.64,6.7-.37,10.41,2,16.7a.13.13,0,0,1-.23.1c-3.06-6.17-3.42-10.8-2-16.79C139,123.16,139.13,123.14,139.09,123.56Z" style="fill: rgb(38, 50, 56); transform-origin: 139.576px 131.831px;" id="eljwa6h3xep47" class="animable"></path><path d="M165.74,158.19s3.54-7.54,4.37-11.2-1.11-18.4-4.31-18.17c-4.15.31-4.71,9-4.43,13.36,0,0-9.59.7-11.35,6.88S165.74,158.19,165.74,158.19Z" style="fill: rgb(173, 99, 89); transform-origin: 160.099px 143.504px;" id="elxay6zvhjwpf" class="animable"></path><path d="M164.68,129.28c-3.58,3-2.84,8.64-2.88,12.85a.38.38,0,0,1-.5.38c-4,.56-9.48,2.52-11.41,6.32a.1.1,0,0,1-.18-.07c1.51-4.36,6.74-6.72,11.16-7.06,0-4.31-.52-10,3.79-12.46A0,0,0,0,1,164.68,129.28Z" style="fill: rgb(38, 50, 56); transform-origin: 157.195px 139.055px;" id="elnewbn6gwu6b" class="animable"></path><path d="M192.79,186.42,190.23,166a153.28,153.28,0,0,1,15.26-5c7.45-1.72,11.4.62,5.91,8.21C207.73,174.33,192.79,186.42,192.79,186.42Z" style="fill: rgb(187, 11, 11); transform-origin: 202.098px 173.442px;" id="el0gelu6c852x" class="animable"></path><path d="M192.26,165.27a6.71,6.71,0,0,0-.28,1.56,7.82,7.82,0,0,0,1-1.82Zm17.9,4.7a8.43,8.43,0,0,0-1.29-2.07,8.33,8.33,0,0,0,.73,2.33c.12.25.24.5.38.75.15-.17.29-.32.42-.48Z" style="fill: rgb(255, 255, 255); transform-origin: 201.19px 167.995px;" id="eloajlr5qjiy" class="animable"></path><path d="M194.46,184.1c-.17-3-.38-6-.72-8.95-.17-1.49-.36-3-.58-4.45s-.58-2.94-.78-4.41a.06.06,0,1,0-.12,0c.27,1.46.34,3,.53,4.46s.38,3,.55,4.45c.35,3,.71,5.93,1,8.91C194.34,184.21,194.46,184.18,194.46,184.1Z" style="fill: rgb(38, 50, 56); transform-origin: 193.36px 175.202px;" id="els7mh1pf5imb" class="animable"></path><g id="el1pgnbm661uz"><path d="M211.4,169.26c-3.68,5.07-18.61,17.15-18.61,17.15L191,172.17l22.06-10.74C214.57,162.67,214.32,165.22,211.4,169.26Z" style="fill: rgb(2, 1, 0); opacity: 0.1; transform-origin: 202.485px 173.92px;" class="animable"></path></g><path d="M185.72,198.55l-11.6,29.21s42.15.89,55.13.75c0,0,8.15-47.37-4.85-63.29-6.5-8-12.17-7.51-17.69-2.54-1.39,1.26-19.82,15.29-22,23.12A20,20,0,0,0,185.72,198.55Z" style="fill: rgb(187, 11, 11); transform-origin: 202.946px 193.79px;" id="elg3wnt4srjsg" class="animable"></path><path d="M194.93,197.1a53.59,53.59,0,0,1,7.84,1.37c1.28.33,2.53.73,3.78,1.15.62.22,1.25.41,1.88.59a8.71,8.71,0,0,0,2,.4.05.05,0,0,1,0,.1,14.12,14.12,0,0,1-1.95-.06,14.73,14.73,0,0,1-1.85-.36c-1.3-.33-2.58-.73-3.88-1.07-2.61-.7-5.22-1.39-7.88-1.9C194.77,197.3,194.8,197.09,194.93,197.1Z" style="fill: rgb(38, 50, 56); transform-origin: 202.645px 198.91px;" id="el0iserg31ndc9" class="animable"></path><path d="M188.36,199.39a60.14,60.14,0,0,1,6.57-.26c1.1,0,2.18.11,3.28.23.52,0,1,.12,1.56.19s1.13.23,1.7.3c.06,0,.06.1,0,.09-.54-.05-1.1,0-1.64,0l-1.64-.06c-1.09,0-2.18-.06-3.27-.11-2.19-.09-4.37-.16-6.56-.18C188.24,199.57,188.25,199.4,188.36,199.39Z" style="fill: rgb(38, 50, 56); transform-origin: 194.894px 199.532px;" id="el39p9izz820w" class="animable"></path><path d="M207.73,191.35a8.17,8.17,0,0,0-2.38-.54,8.58,8.58,0,0,0,2.16,1.13,8.18,8.18,0,0,0,2.37.54A8.86,8.86,0,0,0,207.73,191.35Zm11,29.85a9,9,0,0,0-2.38-.54,8.27,8.27,0,0,0,2.16,1.13,8.12,8.12,0,0,0,2.37.55A8.56,8.56,0,0,0,218.7,221.2Zm-29-43.06c-.07.08-.13.14-.19.22l.61.07C190,178.32,189.83,178.23,189.69,178.14Zm6.4,43.06a9,9,0,0,0-2.37-.54,7.91,7.91,0,0,0,2.15,1.13,8.13,8.13,0,0,0,2.36.55A8.67,8.67,0,0,0,196.09,221.2Zm29.35-47.95a8.44,8.44,0,0,0-2.37-.54,8.77,8.77,0,0,0,2.16,1.14,8.43,8.43,0,0,0,2.37.53A8.92,8.92,0,0,0,225.44,173.25Zm-8.14-13.67c-.16.32-.29.65-.42,1a8.8,8.8,0,0,0-.54,2.37,8.11,8.11,0,0,0,1.13-2.16,8.29,8.29,0,0,0,.31-1A4.78,4.78,0,0,0,217.3,159.58Zm-9.69,52a8.66,8.66,0,0,0-.53,2.38,8.38,8.38,0,0,0,1.12-2.16,8.12,8.12,0,0,0,.55-2.37A9.08,9.08,0,0,0,207.61,211.59Zm10.62-27.5a8.9,8.9,0,0,0-.55,2.37,8.73,8.73,0,0,0,1.14-2.15,9.28,9.28,0,0,0,.55-2.38A8.15,8.15,0,0,0,218.23,184.09ZM184.09,228h.48a5.92,5.92,0,0,0,.15-1A6.19,6.19,0,0,0,184.09,228Zm42.26-16.59a8.41,8.41,0,0,0-2.06,1.3,8.26,8.26,0,0,0,2.32-.73,8,8,0,0,0,2.06-1.29A8.59,8.59,0,0,0,226.35,211.37Zm-30.72-4.6a8.09,8.09,0,0,0-2.06,1.29,9.08,9.08,0,0,0,2.32-.72,8.76,8.76,0,0,0,2.06-1.29A8.25,8.25,0,0,0,195.63,206.77Zm6.6-26.62a8.76,8.76,0,0,0-2.06,1.29,9,9,0,0,0,2.33-.71,8.81,8.81,0,0,0,2.06-1.3A8.66,8.66,0,0,0,202.23,180.15ZM208.16,227a6.88,6.88,0,0,0,.35,1.37h.58A6.56,6.56,0,0,0,208.16,227Zm-25.67-12.77a9.06,9.06,0,0,0-1.28-2.06,8.57,8.57,0,0,0,.71,2.32,8.38,8.38,0,0,0,1.29,2.06A8.35,8.35,0,0,0,182.49,214.23Zm10.6-21.36a8.34,8.34,0,0,0-1.28-2.06,8.94,8.94,0,0,0,.71,2.32,9.15,9.15,0,0,0,1.3,2.06A8.26,8.26,0,0,0,193.09,192.87Zm25.41,7.2a8.19,8.19,0,0,0-1.29-2.06,8.46,8.46,0,0,0,.72,2.32,8.69,8.69,0,0,0,1.3,2.06A8.26,8.26,0,0,0,218.5,200.07ZM210.16,170a8.43,8.43,0,0,0-1.29-2.07,9.55,9.55,0,0,0,2,4.39A8.26,8.26,0,0,0,210.16,170Z" style="fill: rgb(255, 255, 255); transform-origin: 204.94px 193.975px;" id="elrl46ffxdph" class="animable"></path><path d="M184.14,178.7c-16.8-9.66-35.65,2.81-52.46-6.8l2.94-31.68c16.93,8.27,35.91-5.54,52.83,2.78Q185.8,160.85,184.14,178.7Z" style="fill: rgb(255, 255, 255); transform-origin: 159.565px 159.459px;" id="elrxsv0xkg1b" class="animable"></path><polygon points="162.59 163.19 163 164.9 159.44 164.11 159.38 165.34 158.81 165.33 158.77 164.11 155.19 164.81 155.65 163.12 151.77 160.09 152.7 159.64 152.03 156.94 154.3 157.3 154.73 156.06 156.86 158.33 156.46 153.85 157.6 154.53 159.24 151.75 160.82 154.56 161.97 153.91 161.48 158.38 163.65 156.16 164.06 157.41 166.33 157.1 165.6 159.78 166.53 160.24 162.59 163.19" style="fill: rgb(187, 11, 11); transform-origin: 159.15px 158.545px;" id="elg3ncrzdfsdl" class="animable"></polygon><path d="M150,142.89l-2.73,32.89a31.6,31.6,0,0,1-15.59-3.89q1.45-15.82,2.93-31.67A30.48,30.48,0,0,0,150,142.89Z" style="fill: rgb(187, 11, 11); transform-origin: 140.84px 158.001px;" id="ellzbfx8ue5g" class="animable"></path><path d="M187.46,143q-1.67,17.83-3.32,35.7c-5.26-3-10.71-3.88-16.25-3.92l3.66-34.47C177,140,182.31,140.47,187.46,143Z" style="fill: rgb(187, 11, 11); transform-origin: 177.675px 159.463px;" id="el5cseymqi5tg" class="animable"></path><path d="M179.77,222.8a.66.66,0,0,1-.57-.72l7.7-82.74a.66.66,0,0,1,.69-.62.65.65,0,0,1,.57.72l-7.7,82.75A.66.66,0,0,1,179.77,222.8Z" style="fill: rgb(38, 50, 56); transform-origin: 183.68px 180.76px;" id="el5uradx0dgpc" class="animable"></path><path d="M189.82,138a2.21,2.21,0,1,1-2-2.39A2.21,2.21,0,0,1,189.82,138Z" style="fill: rgb(38, 50, 56); fill-rule: evenodd; transform-origin: 187.618px 137.811px;" id="elsqe7k23tb8" class="animable"></path><path d="M232.64,172.23c9.75,11.86,20.41,33.13,17.29,44-3,10.47-47.08,7.42-55,6.3-3.41-.48-1.51-27.6,2.16-27.35,6.06.42,30.33,3.46,30.78,3.47,0,0-3.8-11.19-6.63-23.31C217.42,158.86,225.75,163.84,232.64,172.23Z" style="fill: rgb(173, 99, 89); transform-origin: 221.815px 194.132px;" id="elovv5ktivhep" class="animable"></path><path d="M164.06,194a4.11,4.11,0,0,0,1,4.59,6.08,6.08,0,0,0-2.5,3.29c-.64,2.43,2.89,4.49,2.89,4.49a7.5,7.5,0,0,0-2.09,3.89c-.37,2.38,2.89,5,2.89,5a6.58,6.58,0,0,0,.32,4.58c1.9,3.77,8.33,4.41,12.41,4.78,6.07.56,16.05-2.22,18.38-2.49l2.91-26.18s-17.77-7.07-22.64-6.88C173.49,189.2,165.43,191.11,164.06,194Z" style="fill: rgb(173, 99, 89); transform-origin: 181.376px 206.88px;" id="el4nc22kiw6hy" class="animable"></path><path d="M165.25,198.19c4.32-1.22,8.76-1.09,13.2-1.22.1,0,.11.15,0,.15-4.42.08-8.77,1-13.18,1.28A.11.11,0,0,1,165.25,198.19Z" style="fill: rgb(38, 50, 56); transform-origin: 171.855px 197.685px;" id="elizwdhqugbo" class="animable"></path><path d="M165.53,206a12,12,0,0,1,3.06-.14c1.08,0,2.16.06,3.25.12,2.16.12,4.33.29,6.49.52.09,0,.1.16,0,.15-2.16-.11-4.32-.19-6.49-.21-1.08,0-2.16,0-3.24,0a14.21,14.21,0,0,1-3.06-.13A.16.16,0,0,1,165.53,206Z" style="fill: rgb(38, 50, 56); transform-origin: 171.908px 206.235px;" id="el1osa6nqpahw" class="animable"></path><path d="M166.3,215.23a8,8,0,0,1,2.76,0l3,.2c2,.13,3.95.26,5.92.31.1,0,.11.16,0,.16-2,0-4-.07-6-.14l-3-.11a7.72,7.72,0,0,1-2.67-.34A.06.06,0,0,1,166.3,215.23Z" style="fill: rgb(38, 50, 56); transform-origin: 172.174px 215.505px;" id="el0tegosxok1ob" class="animable"></path><path d="M227.66,198.44a14.32,14.32,0,0,1,2.83.8,21.37,21.37,0,0,1,2.66,1.23,17.32,17.32,0,0,1,4.63,3.58c-.9-.41-1.74-.88-2.59-1.33l-2.52-1.37C231,200.41,229.31,199.51,227.66,198.44Z" style="fill: rgb(38, 50, 56); transform-origin: 232.72px 201.245px;" id="elmi10dgapdtp" class="animable"></path><path d="M244.19,185.79l-21.23.76a158,158,0,0,1-3.74-16.19c-1.08-7.82,1.57-10.06,8.88-3.71C233,170.9,244.19,185.79,244.19,185.79Z" style="fill: rgb(187, 11, 11); transform-origin: 231.589px 174.755px;" id="eldwt300uv9zv" class="animable"></path><path d="M235.65,184.19a10.56,10.56,0,0,1-2.5-.79,10.42,10.42,0,0,1-2.27-1.34,11.44,11.44,0,0,1,4.77,2.13ZM230.49,169a10.41,10.41,0,0,0-2.22.61,10.19,10.19,0,0,0-2.34,1.21,11.92,11.92,0,0,0,4.67-1.72Z" style="fill: rgb(255, 255, 255); transform-origin: 230.79px 176.595px;" id="elsfudse59ggq" class="animable"></path><path d="M225.06,186.49a18.11,18.11,0,0,0-2.08,0c-.32-1.22-.62-2.44-.94-3.65-.17-.61-.34-1.21-.52-1.81s-.4-1.43-.58-2a.06.06,0,1,0-.12,0c.15.79.29,1.37.43,2.05.1.48.21.95.33,1.43l-.18-.34c-.31-.61-.67-1.19-1-1.83,0-.08-.16,0-.12.06.31.62.53,1.27.82,1.89a10.82,10.82,0,0,0,.71,1.4c.25,1,.41,2.22.71,3.21a18.43,18.43,0,0,0,2.49-.33S225.09,186.49,225.06,186.49Z" style="fill: rgb(38, 50, 56); transform-origin: 222.67px 182.935px;" id="elvxh02pwq6zb" class="animable"></path><path d="M242,183.85c-3.1-.1-6.2-.16-9.29-.08-1.55,0-7.72.52-9.26.58a.07.07,0,0,0,0,.13c1.91.11,8-.1,9.58-.14,3.09-.09,5.88-.34,9-.36C242.06,184,242.05,183.85,242,183.85Z" style="fill: rgb(38, 50, 56); transform-origin: 232.726px 184.122px;" id="elsuyb1mlbfa" class="animable"></path><path d="M219.39,165.15c-.51.92-7,6-11.48,4.49-1.45-.48.86-8.5.86-8.5l0-.64.49-8.83,11.54-3.49,1.64-.43s-.29,2.41-.69,5.4l-.06.43c0,.17,0,.33-.06.49,0,.44-.11.9-.17,1.36s-.1.68-.16,1-.12.72-.17,1.08A58.25,58.25,0,0,1,219.39,165.15Z" style="fill: rgb(173, 99, 89); transform-origin: 214.936px 158.834px;" id="el36mhleagosn" class="animable"></path><path d="M221.79,153.15a17.74,17.74,0,0,1-13,7.35l.49-8.83,11.54-3.49,1.64-.43S222.19,150.16,221.79,153.15Z" style="fill: rgb(38, 50, 56); transform-origin: 215.625px 154.125px;" id="el3ugfxq128l2" class="animable"></path><path d="M200.39,136.77c-3.91,15,4.65,19.06,7.9,19.9,2.94.76,13.05,3,18.49-11.57s-.32-21.11-7-23.2S204.29,121.74,200.39,136.77Z" style="fill: rgb(173, 99, 89); transform-origin: 214.164px 139.23px;" id="el348dvj1mvd7" class="animable"></path><path d="M206.46,134.33c.37,0,.71,0,1.08,0a1.76,1.76,0,0,0,1.1-.25.56.56,0,0,0,.11-.67,1.36,1.36,0,0,0-1.28-.55,2,2,0,0,0-1.38.48A.59.59,0,0,0,206.46,134.33Z" style="fill: rgb(38, 50, 56); transform-origin: 207.373px 133.594px;" id="ellmt1ipyte2b" class="animable"></path><path d="M216.81,137.54c-.36-.11-.67-.26-1-.4a1.76,1.76,0,0,1-.94-.61.55.55,0,0,1,.12-.67,1.37,1.37,0,0,1,1.4-.08,2,2,0,0,1,1.12.93A.59.59,0,0,1,216.81,137.54Z" style="fill: rgb(38, 50, 56); transform-origin: 216.189px 136.596px;" id="elcm2baapwuce" class="animable"></path><path d="M213.89,139.93s.07.06.06.11c-.24,1-.35,2.27.53,2.8,0,0,0,.07,0,.06C213.34,142.5,213.49,140.87,213.89,139.93Z" style="fill: rgb(38, 50, 56); transform-origin: 214.038px 141.415px;" id="el119yue94l2k" class="animable"></path><path d="M215.05,139c1.7.21,1.15,3.61-.43,3.41S213.61,138.85,215.05,139Z" style="fill: rgb(38, 50, 56); transform-origin: 214.882px 140.707px;" id="elagj1zzjtnxd" class="animable"></path><path d="M215.68,139.31c.27.24.5.63.86.72s.77-.19,1.1-.49c0,0,.06,0,.05.05-.09.65-.45,1.28-1.17,1.26s-1-.66-1.07-1.35C215.44,139.38,215.58,139.22,215.68,139.31Z" style="fill: rgb(38, 50, 56); transform-origin: 216.57px 140.067px;" id="elctudb20ri04" class="animable"></path><path d="M207.63,138.26s-.09,0-.1.08c-.12,1.06-.45,2.25-1.46,2.46,0,0,0,.06,0,.06C207.26,140.87,207.68,139.29,207.63,138.26Z" style="fill: rgb(38, 50, 56); transform-origin: 206.852px 139.56px;" id="elsbh4kczdxvn" class="animable"></path><path d="M206.86,137c-1.68-.39-2.33,3-.78,3.35S208.26,137.34,206.86,137Z" style="fill: rgb(38, 50, 56); transform-origin: 206.419px 138.672px;" id="el92e2ginzjif" class="animable"></path><path d="M206.11,137.1c-.3.13-.63.4-1,.36s-.58-.46-.75-.86c0,0,0,0-.06,0-.14.64-.06,1.35.54,1.6s1.07-.25,1.35-.87C206.29,137.25,206.23,137.05,206.11,137.1Z" style="fill: rgb(38, 50, 56); transform-origin: 205.241px 137.433px;" id="elj2ags5gtgb" class="animable"></path><path d="M212.05,148.06c-.29.22-.58.53-1,.52a2.76,2.76,0,0,1-1.1-.4,0,0,0,0,0-.06,0,1.44,1.44,0,0,0,1.28.73,1.12,1.12,0,0,0,.94-.84C212.17,148.06,212.09,148,212.05,148.06Z" style="fill: rgb(38, 50, 56); transform-origin: 211.011px 148.472px;" id="el79pfc1df4zn" class="animable"></path><path d="M207.87,143.24s-.5,1.54-.63,2.29a4.11,4.11,0,0,0,4.11-.53c.07-.05,0-.15-.09-.12a5.37,5.37,0,0,1-3.39.36c0-.21.93-2.6.81-2.63a6.6,6.6,0,0,0-1.75.08c.93-3.23,2.38-6.29,3.26-9.52a.1.1,0,0,0-.19-.08,54.2,54.2,0,0,0-3.95,10.11C205.92,143.61,207.55,143.32,207.87,143.24Z" style="fill: rgb(38, 50, 56); transform-origin: 208.711px 139.441px;" id="el04752teerq0c" class="animable"></path><path d="M208.27,145.62a4,4,0,0,0,1.36,1.44,1.76,1.76,0,0,0,1,.23c.8-.08.92-.78.88-1.4a4.38,4.38,0,0,0-.2-1A5.06,5.06,0,0,1,208.27,145.62Z" style="fill: rgb(38, 50, 56); transform-origin: 209.893px 146.092px;" id="elj4p2mt65ste" class="animable"></path><path d="M209.63,147.06a1.76,1.76,0,0,0,1,.23c.8-.08.92-.78.88-1.4A1.82,1.82,0,0,0,209.63,147.06Z" style="fill: rgb(255, 154, 187); transform-origin: 210.573px 146.588px;" id="elartn8ur3kp" class="animable"></path><path d="M225.58,146.48c-3-.24-2.31-7-2.31-7s-11.88-4.69-10.81-14.94A17.34,17.34,0,0,1,201.93,132s2.76-10.9,11.93-11.2c0,0,11.66-1.65,15.93,8.22S227.57,146.65,225.58,146.48Z" style="fill: rgb(38, 50, 56); transform-origin: 216.573px 133.59px;" id="eldncdqo196b" class="animable"></path><path d="M212.58,123.75a11.13,11.13,0,0,0-.42,4.7,11.66,11.66,0,0,0,1.47,4.54,8.71,8.71,0,0,0,.65,1l.35.5c.12.15.26.3.39.45s.53.6.81.88l.92.77c.15.13.3.26.46.38l.5.32,1,.65c.7.36,1.42.69,2.14,1-.65-.46-1.32-.85-2-1.31l-.91-.71-.46-.35-.41-.4-.83-.8c-.26-.28-.49-.58-.74-.87l-.37-.44-.31-.48a8.66,8.66,0,0,1-.61-1,13.34,13.34,0,0,1-1.55-4.27,13.48,13.48,0,0,1-.24-2.29A14.06,14.06,0,0,1,212.58,123.75Z" style="fill: rgb(38, 50, 56); transform-origin: 216.462px 131.345px;" id="elmo2m6pol0m" class="animable"></path><path d="M224.09,145.64s4.15-4.22,6.12-2.66-1.72,8.06-4.43,8.58a2.63,2.63,0,0,1-3.23-2Z" style="fill: rgb(173, 99, 89); transform-origin: 226.658px 147.139px;" id="el9ikngacw43a" class="animable"></path><path d="M229.11,144.82s0,.06,0,.07c-1.91.42-3.13,1.92-4.08,3.52a1.46,1.46,0,0,1,2.21,0s0,.11-.07.09a1.61,1.61,0,0,0-1.84.26,7.72,7.72,0,0,0-1.08,1.27c-.11.15-.39,0-.3-.16l0,0C224.32,147.52,226.62,144.63,229.11,144.82Z" style="fill: rgb(38, 50, 56); transform-origin: 226.521px 147.451px;" id="elkn3mwdv071" class="animable"></path><polygon points="219.21 148.9 219.26 149.87 217.41 149.07 217.25 149.73 216.94 149.67 217.05 149 215.03 149 215.46 148.13 213.67 146.08 214.23 145.94 214.15 144.41 215.34 144.84 215.71 144.21 216.62 145.67 216.87 143.19 217.42 143.68 218.6 142.35 219.16 144.04 219.86 143.81 219.12 146.18 220.53 145.2 220.62 145.92 221.88 145.99 221.21 147.37 221.66 147.72 219.21 148.9" style="fill: rgb(255, 255, 255); transform-origin: 217.775px 146.11px;" id="eln6y3cvhtg3p" class="animable"></polygon><polygon points="215.71 144.22 216.62 145.66 215.97 149 215.04 149 215.46 148.13 213.67 146.08 214.23 145.94 214.15 144.4 215.34 144.84 215.71 144.22" style="fill: rgb(187, 11, 11); transform-origin: 215.145px 146.61px;" id="elw5mb38ou4k" class="animable"></polygon><polygon points="219.21 148.9 219.26 149.87 218.47 149.53 219.12 146.18 220.53 145.2 220.62 145.92 221.89 146 221.21 147.37 221.66 147.72 219.21 148.9" style="fill: rgb(187, 11, 11); transform-origin: 220.18px 147.535px;" id="elom9agef2gy" class="animable"></polygon></g><defs>     <filter id="active" height="200%">         <feMorphology in="SourceAlpha" result="DILATED" operator="dilate" radius="2"></feMorphology>                <feFlood flood-color="#32DFEC" flood-opacity="1" result="PINK"></feFlood>        <feComposite in="PINK" in2="DILATED" operator="in" result="OUTLINE"></feComposite>        <feMerge>            <feMergeNode in="OUTLINE"></feMergeNode>            <feMergeNode in="SourceGraphic"></feMergeNode>        </feMerge>    </filter>    <filter id="hover" height="200%">        <feMorphology in="SourceAlpha" result="DILATED" operator="dilate" radius="2"></feMorphology>                <feFlood flood-color="#ff0000" flood-opacity="0.5" result="PINK"></feFlood>        <feComposite in="PINK" in2="DILATED" operator="in" result="OUTLINE"></feComposite>        <feMerge>            <feMergeNode in="OUTLINE"></feMergeNode>            <feMergeNode in="SourceGraphic"></feMergeNode>        </feMerge>            <feColorMatrix type="matrix" values="0   0   0   0   0                0   1   0   0   0                0   0   0   0   0                0   0   0   1   0 "></feColorMatrix>    </filter></defs></svg>